<?xml version="1.0" standalone="no"?>
<!DOCTYPE svg PUBLIC "-//W3C//DTD SVG 1.1//EN" "http://www.w3.org/Graphics/SVG/1.1/DTD/svg11.dtd" >
<svg xmlns="http://www.w3.org/2000/svg">
<metadata>Generated by IcoMoon</metadata>
<defs>
<font id="NikikalaMobile" horiz-adv-x="1024">
<font-face units-per-em="1024" ascent="818.7996089931573" descent="-205.2003910068426" />
<missing-glyph horiz-adv-x="1024" />
<glyph unicode="&#x20;" horiz-adv-x="0" d="" />
<glyph unicode="&#xe001;" glyph-name="PrivateUseArea-E001" horiz-adv-x="1126" d="M833.255 821.961q80.314 0 147.242-36.81t107.085-102.065q38.484-66.928 38.484-143.895v-408.261q0-80.314-38.484-147.242-36.81-68.601-105.412-105.412-68.601-38.484-148.915-38.484h-540.444q-80.314 0-148.915 38.484-66.928 36.81-105.412 105.412-38.484 66.928-38.484 147.242v691.033h833.255zM744.575 331.712l232.575-277.752h-160.627l-230.902 277.752 230.902 277.752h160.627zM431.686 609.464q63.582 0 108.758-45.176t45.176-108.758v-249.307q0-65.255-43.503-108.758-46.85-43.503-110.431-43.503h-282.771v122.144h247.634q25.098 0 45.176 20.078t20.078 43.503v189.072q0 21.752-18.405 40.157-18.405 16.732-46.85 16.732h-247.634v123.817h282.771z" />
<glyph unicode="&#xe002;" glyph-name="PrivateUseArea-E002" d="M351.373 609.464q-1.673-6.693-1.673-40.157 0-46.85 10.039-87.007 11.712-53.542 41.83-88.68 38.484-43.503 107.085-43.503h1.673q68.601 0 107.085 43.503 30.118 35.137 41.83 88.68 10.039 40.157 10.039 87.007 0 31.791-1.673 40.157v1.673q-1.673 93.699-60.235 135.529-36.81 26.771-97.046 30.118h-1.673q-56.889 0-93.699-26.771-58.562-43.503-63.582-138.876v0-1.673zM506.98 294.902q-93.699 3.346-145.569 61.908t-63.582 157.281q-6.693 50.196-1.673 102.065 1.673 70.275 36.81 125.49 21.752 38.484 63.582 61.908 51.869 28.444 112.105 28.444h3.346q65.255-3.346 110.431-28.444 38.484-21.752 65.255-61.908 31.791-53.542 35.137-125.49 5.020-51.869-1.673-102.065-13.386-100.392-61.908-157.281-55.216-60.235-147.242-61.908h-5.020zM933.647 38.902q3.346-63.582-10.039-93.699-1.673-6.693-10.039-11.712v-1.673q-40.157-26.771-112.105-50.196-137.203-48.523-291.137-48.523-152.261 0-292.81 48.523-75.294 25.098-110.431 51.869-8.366 3.346-11.712 11.712-13.386 30.118-10.039 93.699v6.693q3.346 58.562 13.386 87.007 21.752 60.235 80.314 80.314h1.673q55.216 13.386 120.471 48.523 35.137 16.732 51.869 30.118 10.039 6.693 21.752 5.020 6.693-1.673 16.732-11.712 6.693-10.039 5.020-21.752t-11.712-18.405h-1.673q-28.444-18.405-60.235-35.137-65.255-35.137-127.163-50.196-33.464-13.386-45.176-46.85-6.693-21.752-10.039-68.601v-5.020q0-36.81 5.020-65.255 43.503-23.425 120.471-48.523 115.451-35.137 244.288-35.137t244.288 35.137q76.967 25.098 120.471 48.523 3.346 33.464 3.346 65.255v5.020q-3.346 46.85-10.039 68.601-11.712 33.464-45.176 46.85-70.275 20.078-132.183 51.869-26.771 13.386-56.889 33.464-8.366 8.366-10.039 18.405-3.346 13.386 3.346 21.752 10.039 10.039 18.405 11.712 11.712 1.673 21.752-5.020 10.039-10.039 50.196-31.791 60.235-30.118 120.471-46.85h1.673q56.889-20.078 80.314-80.314 10.039-26.771 13.386-87.007v-6.693z" />
<glyph unicode="&#xe003;" glyph-name="PrivateUseArea-E003" d="M543.791 607.791h-63.582v-256h-256v-63.582h256v-256h63.582v256h256v63.582h-256v256zM1024 671.373q0 66.928-46.85 113.778t-113.778 46.85h-702.745q-66.928 0-113.778-46.85t-46.85-113.778v-702.745q0-66.928 46.85-113.778t113.778-46.85h702.745q66.928 0 113.778 46.85t46.85 113.778v702.745zM960.418-31.373q0-40.157-28.444-68.601t-68.601-28.444h-702.745q-40.157 0-68.601 28.444t-28.444 68.601v702.745q0 40.157 28.444 68.601t68.601 28.444h702.745q40.157 0 68.601-28.444t28.444-68.601v-702.745z" />
<glyph unicode="&#xe004;" glyph-name="PrivateUseArea-E004" horiz-adv-x="977" d="M972.131 565.961q6.693-6.693 6.693-16.732v-714.458q0-10.039-8.366-18.405t-20.078-8.366h-923.608q-10.039 0-18.405 8.366t-8.366 18.405v714.458q0 8.366 6.693 16.732l199.111 256q8.366 10.039 21.752 10.039h522.039q13.386 0 21.752-10.039zM515.346 775.111v-199.111h378.144l-157.281 199.111h-220.863zM83.66 576h378.144v199.111h-220.863zM923.608 520.784h-868.392v-657.569h868.392v657.569zM292.81 194.51q0-10.039 8.366-18.405t20.078-8.366h140.549v-142.222q0-10.039 8.366-18.405t20.078-8.366q10.039 0 18.405 8.366t8.366 18.405v142.222h140.549q11.712 0 20.078 8.366 6.693 6.693 6.693 18.405 0 13.386-6.693 20.078t-20.078 6.693h-140.549v142.222q0 11.712-8.366 20.078-6.693 6.693-18.405 6.693-13.386 0-20.078-6.693-8.366-8.366-8.366-20.078v-142.222h-140.549q-13.386 0-20.078-6.693-8.366-8.366-8.366-20.078z" />
<glyph unicode="&#xe005;" glyph-name="PrivateUseArea-E005" d="M704.418 341.752q0 31.791-23.425 55.216-21.752 21.752-55.216 21.752-31.791 0-53.542-21.752-23.425-23.425-23.425-55.216t23.425-55.216 53.542-23.425q31.791 0 55.216 23.425t23.425 55.216zM500.288 366.85q10.039 43.503 45.176 73.621 36.81 28.444 81.987 28.444 43.503 0 80.314-28.444 35.137-30.118 43.503-73.621h184.052q11.712 0 18.405-6.693t6.693-18.405-6.693-18.405-18.405-6.693h-184.052q-8.366-45.176-43.503-73.621-35.137-30.118-80.314-30.118-46.85 0-81.987 30.118-35.137 26.771-45.176 73.621h-411.608q-10.039 0-16.732 6.693-8.366 8.366-8.366 18.405t8.366 18.405q6.693 6.693 16.732 6.693h411.608zM491.922-43.085q0 33.464-21.752 55.216-23.425 23.425-55.216 23.425-30.118 0-53.542-23.425t-23.425-55.216q0-30.118 23.425-53.542t53.542-23.425q31.791 0 55.216 23.425 21.752 21.752 21.752 53.542zM289.464-17.987q6.693 43.503 43.503 75.294 36.81 28.444 81.987 28.444 43.503 0 81.987-28.444 36.81-30.118 43.503-75.294h394.876q11.712 0 18.405-6.693t6.693-16.732q0-11.712-6.693-18.405-8.366-8.366-18.405-8.366h-394.876q-8.366-43.503-43.503-71.948-35.137-30.118-81.987-30.118t-81.987 30.118q-35.137 28.444-43.503 71.948h-200.784q-8.366 0-16.732 8.366t-8.366 18.405q0 8.366 8.366 16.732 6.693 6.693 16.732 6.693h200.784zM491.922 683.085q0 33.464-21.752 55.216t-55.216 21.752q-31.791 0-53.542-21.752-23.425-23.425-23.425-55.216t23.425-55.216 53.542-23.425q31.791 0 55.216 23.425 21.752 21.752 21.752 55.216zM289.464 708.183q8.366 43.503 43.503 73.621 36.81 28.444 81.987 28.444 43.503 0 80.314-28.444 35.137-30.118 45.176-73.621h394.876q11.712 0 18.405-6.693t6.693-18.405-6.693-18.405-18.405-6.693h-394.876q-8.366-45.176-43.503-73.621-38.484-30.118-81.987-30.118-46.85 0-81.987 30.118-35.137 28.444-43.503 73.621h-200.784q-10.039 0-16.732 6.693-8.366 8.366-8.366 18.405t8.366 18.405q6.693 6.693 16.732 6.693h200.784z" />
<glyph unicode="&#xe006;" glyph-name="PrivateUseArea-E006" d="M704.418 351.791q11.712 0 23.425-8.366 8.366-11.712 8.366-23.425 0-13.386-8.366-21.752-10.039-10.039-23.425-10.039h-160.627v-160.627q0-13.386-8.366-21.752-10.039-10.039-23.425-10.039t-21.752 10.039q-10.039 6.693-10.039 21.752v160.627h-160.627q-15.059 0-21.752 10.039-10.039 8.366-10.039 21.752t10.039 23.425q8.366 8.366 21.752 8.366h160.627v160.627q0 13.386 10.039 23.425 8.366 8.366 21.752 8.366 11.712 0 23.425-8.366 8.366-11.712 8.366-23.425v-160.627h160.627zM895.163 832q55.216 0 92.026-36.81t36.81-90.353v-768q0-53.542-36.81-90.353-38.484-38.484-90.353-38.484h-768q-51.869 0-90.353 38.484t-38.484 90.353v766.327q0 53.542 38.484 92.026 36.81 36.81 90.353 36.81h766.327zM960.418 704.837q0 23.425-18.405 45.176-21.752 18.405-45.176 18.405h-768q-26.771 0-45.176-18.405-20.078-20.078-20.078-45.176v-768q0-28.444 20.078-45.176 16.732-20.078 45.176-20.078h768q25.098 0 45.176 20.078 18.405 18.405 18.405 45.176v768z" />
<glyph unicode="&#xe007;" glyph-name="PrivateUseArea-E007" horiz-adv-x="1755" d="M878.431 55.634l711.111 746.248q26.771 30.118 68.601 30.118t68.601-30.118q28.444-31.791 28.444-71.948t-28.444-71.948l-779.712-819.869q-26.771-30.118-68.601-30.118t-70.275 30.118l-779.712 819.869q-28.444 28.444-28.444 71.948 0 40.157 28.444 71.948 28.444 30.118 70.275 30.118 38.484 0 66.928-30.118z" />
<glyph unicode="&#xe008;" glyph-name="PrivateUseArea-E008" d="M962.092 557.595q10.039-10.039 10.039-23.425t-10.039-23.425l-428.34-426.667q-8.366-10.039-21.752-10.039-16.732 0-23.425 10.039l-428.34 426.667q-10.039 10.039-10.039 23.425t10.039 23.425 23.425 10.039 23.425-10.039l404.915-406.588 404.915 406.588q10.039 10.039 23.425 10.039t21.752-10.039z" />
<glyph unicode="&#xe009;" glyph-name="PrivateUseArea-E009" d="M967.111 400.314q23.425 0 40.157-15.059 16.732-16.732 16.732-40.157v-46.85q0-23.425-16.732-40.157-18.405-18.405-40.157-18.405h-686.013l217.516-217.516q16.732-15.059 16.732-38.484t-16.732-38.484l-33.464-33.464q-16.732-16.732-40.157-16.732t-40.157 16.732l-368.105 368.105q-16.732 16.732-16.732 40.157t16.732 40.157l368.105 368.105q16.732 16.732 40.157 16.732t40.157-16.732l33.464-33.464q16.732-15.059 16.732-38.484t-16.732-40.157l-215.843-215.843h684.34z" />
<glyph unicode="&#xe00a;" glyph-name="PrivateUseArea-E00A" d="M274.405 296.575q-10.039 10.039-10.039 23.425t10.039 23.425l428.34 426.667q10.039 10.039 23.425 10.039 11.712 0 23.425-8.366 10.039-10.039 10.039-23.425t-10.039-23.425l-404.915-404.915 404.915-404.915q10.039-10.039 10.039-23.425t-10.039-21.752q-10.039-10.039-23.425-10.039t-23.425 10.039z" />
<glyph unicode="&#xe00b;" glyph-name="PrivateUseArea-E00B" d="M747.922 296.575q10.039 10.039 10.039 23.425t-10.039 23.425l-426.667 426.667q-10.039 10.039-23.425 10.039-11.712 0-23.425-8.366-10.039-10.039-10.039-23.425t10.039-23.425l404.915-404.915-404.915-404.915q-10.039-10.039-10.039-23.425t10.039-21.752q10.039-10.039 23.425-10.039t23.425 10.039z" />
<glyph unicode="&#xe00c;" glyph-name="PrivateUseArea-E00C" d="M1024 90.771l-53.542-51.869-458.458 456.784-458.458-456.784-53.542 51.869 512 510.327z" />
<glyph unicode="&#xe00d;" glyph-name="PrivateUseArea-E00D" horiz-adv-x="1074" d="M993.882 733.281q51.869-51.869 71.948-122.144 16.732-71.948 0-142.222-20.078-73.621-71.948-125.49l-506.98-506.98q-11.712-11.712-26.771-6.693-18.405 1.673-20.078 20.078-5.020 15.059 6.693 26.771l506.98 506.98q30.118 28.444 48.523 71.948 16.732 38.484 16.732 83.66t-16.732 85.333q-18.405 40.157-46.85 71.948-31.791 28.444-71.948 46.85-38.484 16.732-83.66 16.732-46.85 0-85.333-16.732-41.83-18.405-71.948-48.523l-545.464-545.464q-41.83-40.157-41.83-97.046 0-58.562 41.83-98.719 40.157-40.157 97.046-40.157t97.046 40.157l547.137 547.137q15.059 15.059 15.059 38.484 0 21.752-15.059 40.157-18.405 15.059-38.484 15.059-23.425 0-40.157-16.732l-506.98-506.98q-11.712-11.712-26.771-6.693-18.405 1.673-20.078 20.078-5.020 13.386 8.366 26.771l506.98 506.98q31.791 31.791 78.641 31.791 45.176 0 76.967-31.791t31.791-78.641-31.791-78.641l-545.464-545.464q-36.81-36.81-87.007-50.196t-98.719 0q-48.523 11.712-87.007 50.196t-50.196 87.007q-11.712 50.196 0 100.392 13.386 50.196 48.523 85.333l547.137 545.464q35.137 38.484 88.68 61.908 50.196 20.078 105.412 20.078 53.542 0 107.085-20.078 53.542-23.425 88.68-61.908z" />
<glyph unicode="&#xe00e;" glyph-name="PrivateUseArea-E00E" d="M707.765-192l-512 512 512 512 120.471-118.797-393.203-393.203 393.203-393.203z" />
<glyph unicode="&#xe00f;" glyph-name="PrivateUseArea-E00F" horiz-adv-x="865" d="M650.876-61.49q-1.673 6.693-11.712 6.693t-11.712-6.693 0-13.386l31.791-55.216q3.346-5.020 8.366-5.020 3.346-1.673 10.039 1.673 5.020 1.673 6.693 6.693 1.673 3.346-1.673 10.039zM299.503-74.876q3.346 6.693 1.673 11.712-3.346 6.693-6.693 8.366-5.020 3.346-10.039 0-6.693-3.346-8.366-6.693l-31.791-55.216q-3.346-5.020 0-10.039 1.673-5.020 6.693-6.693 3.346-3.346 8.366-1.673 5.020 0 8.366 5.020zM476.863-115.033q0 6.693-3.346 10.039-6.693 3.346-10.039 3.346-5.020 0-8.366-3.346-5.020-3.346-5.020-10.039v-63.582q0-6.693 5.020-8.366 3.346-5.020 8.366-5.020t10.039 5.020q3.346 3.346 3.346 8.366v63.582zM276.078 688.105q5.020-6.693 13.386-6.693 6.693 0 11.712 6.693 1.673 6.693-1.673 13.386l-31.791 56.889q-1.673 1.673-8.366 5.020-5.020 1.673-10.039 0t-5.020-8.366q-1.673-6.693 0-11.712zM450.092 743.32q0-8.366 5.020-10.039 3.346-5.020 8.366-5.020t10.039 5.020q3.346 3.346 3.346 10.039v63.582q0 3.346-3.346 10.039-6.693 3.346-10.039 3.346-5.020 0-8.366-3.346-5.020-5.020-5.020-10.039v-63.582zM627.451 701.49q-1.673-6.693 0-13.386t11.712-6.693 11.712 6.693l31.791 55.216q3.346 6.693 1.673 11.712-3.346 6.693-6.693 8.366-5.020 1.673-10.039 0-6.693-3.346-8.366-5.020zM823.216 527.477q5.020 5.020 0 11.712-5.020 5.020-11.712 0l-332.967-299.503q-6.693-3.346-10.039-3.346-5.020 0-8.366 3.346l-105.412 105.412q-10.039 10.039-25.098 10.039-11.712 0-18.405-5.020-11.712-8.366-13.386-15.059-5.020-8.366-1.673-20.078 1.673-11.712 8.366-18.405l140.549-142.222q11.712-8.366 25.098-6.693 15.059 0 21.752 10.039zM746.248 400.314l-234.248-261.020q-16.732-20.078-45.176-20.078-21.752 0-38.484 15.059l-142.222 142.222q-15.059 13.386-16.732 31.791-3.346 21.752 3.346 36.81 6.693 16.732 23.425 28.444 15.059 10.039 33.464 10.039v0q25.098 0 43.503-18.405l97.046-97.046 276.078 247.634v16.732q0 21.752-15.059 36.81-16.732 13.386-35.137 13.386h-466.824q-26.771 0-41.83-21.752l-140.549-197.438q-16.732-21.752-16.732-48.523 0-28.444 16.732-50.196l140.549-199.111q15.059-20.078 41.83-20.078h466.824q20.078 0 35.137 15.059 15.059 11.712 15.059 35.137v304.523zM843.294 555.922q8.366-11.712 8.366-23.425t-8.366-23.425l-70.275-78.641v-334.641q0-33.464-21.752-55.216-23.425-23.425-55.216-23.425h-466.824q-18.405 0-36.81 10.039-15.059 6.693-26.771 23.425l-140.549 197.438q-21.752 28.444-21.752 66.928 0 36.81 21.752 63.582l140.549 199.111q11.712 16.732 26.771 23.425 20.078 8.366 36.81 8.366h466.824q30.118 0 51.869-20.078t25.098-50.196l21.752 20.078q11.712 8.366 25.098 8.366t23.425-11.712zM117.124 278.17q15.059 0 25.098 10.039t10.039 25.098q0 13.386-10.039 26.771-10.039 10.039-25.098 10.039t-25.098-10.039q-11.712-11.712-11.712-26.771t11.712-25.098q10.039-10.039 25.098-10.039zM117.124 376.889q25.098 0 43.503-18.405t18.405-43.503q0-26.771-18.405-45.176t-43.503-18.405q-26.771 0-45.176 18.405t-18.405 45.176q0 25.098 18.405 43.503t45.176 18.405z" />
<glyph unicode="&#xe010;" glyph-name="PrivateUseArea-E010" d="M393.203 157.699q15.059 0 28.444 13.386l239.268 239.268q13.386 13.386 13.386 30.118 0 18.405-11.712 30.118t-30.118 11.712q-16.732 0-30.118-13.386l-239.268-239.268q-13.386-13.386-13.386-28.444 0-16.732 13.386-30.118t30.118-13.386zM630.797 157.699q21.752 3.346 31.791 13.386 11.712 11.712 11.712 30.118 0 15.059-13.386 28.444l-239.268 239.268q-13.386 13.386-28.444 13.386-18.405 0-30.118-11.712-13.386-13.386-13.386-30.118t13.386-30.118l239.268-239.268q13.386-13.386 28.444-13.386zM512-183.634q97.046 0 192.418 38.484 93.699 36.81 162.301 107.085 95.373 95.373 130.51 227.556 33.464 127.163 0 256-35.137 130.51-130.51 229.229-73.621 71.948-162.301 107.085-90.353 36.81-192.418 36.81t-192.418-36.81q-88.68-35.137-162.301-107.085-95.373-98.719-130.51-229.229-33.464-128.837 0-256 35.137-132.183 130.51-227.556 70.275-70.275 162.301-107.085 95.373-38.484 192.418-38.484zM512 738.301q85.333 0 160.627-31.791 76.967-31.791 133.856-92.026 81.987-81.987 108.758-187.399 26.771-107.085 0-214.17-26.771-105.412-108.758-187.399-56.889-60.235-133.856-92.026-75.294-31.791-158.954-31.791-80.314 0-160.627 33.464-78.641 33.464-135.529 90.353-80.314 80.314-107.085 187.399t0 214.17 107.085 187.399q56.889 60.235 133.856 92.026 75.294 31.791 160.627 31.791z" />
<glyph unicode="&#xe011;" glyph-name="PrivateUseArea-E011" d="M977.15 721.569l-378.144-378.144 378.144-378.144-110.431-110.431-378.144 378.144-378.144-378.144-110.431 110.431 378.144 378.144-378.144 378.144 110.431 110.431 378.144-378.144 378.144 378.144z" />
<glyph unicode="&#xe012;" glyph-name="PrivateUseArea-E012" d="M898.51 214.588q26.771 0 45.176 18.405t18.405 41.83v212.497l-734.536 93.699v-307.869q0-23.425 20.078-40.157 18.405-18.405 43.503-18.405h607.373zM931.974-76.549q0 21.752-18.405 40.157-16.732 16.732-43.503 16.732-28.444 0-45.176-16.732-18.405-18.405-18.405-40.157 0-23.425 18.405-41.83 16.732-16.732 45.176-16.732 26.771 0 43.503 16.732 18.405 18.405 18.405 41.83zM443.399-76.549q0 23.425-16.732 40.157t-43.503 16.732q-28.444 0-45.176-16.732-18.405-18.405-18.405-40.157 0-23.425 18.405-41.83 16.732-16.732 45.176-16.732 26.771 0 43.503 16.732t16.732 41.83zM291.137 157.699q-35.137 0-63.582 16.732v-76.967q0-25.098 20.078-41.83 18.405-18.405 43.503-18.405h578.928q48.523 0 87.007-33.464 35.137-31.791 35.137-80.314t-35.137-81.987q-38.484-33.464-87.007-33.464-50.196 0-87.007 33.464-36.81 31.791-36.81 81.987 0 30.118 16.732 56.889h-274.405q16.732-26.771 16.732-56.889 0-50.196-36.81-81.987-38.484-33.464-87.007-33.464t-87.007 33.464q-36.81 31.791-36.81 81.987 0 30.118 18.405 58.562-45.176 5.020-76.967 38.484-31.791 31.791-31.791 76.967v622.431l-148.915 56.889q-13.386 5.020-15.059 16.732-5.020 10.039 0 21.752 3.346 10.039 15.059 15.059 11.712 1.673 23.425 0l170.667-66.928 6.693-5.020 5.020-6.693 3.346-13.386v-100.392l776.366-100.392 11.712-5.020 5.020-6.693 3.346-8.366v-244.288q0-48.523-36.81-80.314-36.81-35.137-88.68-35.137h-607.373zM774.693 375.216q48.523 48.523 65.255 110.431 15.059 63.582 0 127.163-18.405 66.928-63.582 112.105t-112.105 63.582q-63.582 18.405-127.163 0-65.255-18.405-110.431-63.582-46.85-46.85-65.255-112.105-18.405-63.582 0-127.163 16.732-61.908 65.255-110.431t110.431-63.582q63.582-18.405 127.163 0 61.908 15.059 110.431 63.582zM491.922 442.144l215.843 214.17zM707.765 442.144l-215.843 214.17zM793.098 743.32q-53.542 53.542-122.144 70.275-70.275 18.405-140.549 0-70.275-16.732-123.817-70.275-51.869-51.869-70.275-123.817-18.405-70.275 0-140.549 16.732-68.601 70.275-122.144 55.216-55.216 123.817-71.948 70.275-18.405 140.549 0 68.601 16.732 123.817 71.948 53.542 53.542 70.275 122.144 18.405 70.275 0 140.549-16.732 68.601-71.948 123.817l-18.405-18.405zM756.288 704.837q41.83-41.83 56.889-98.719t0-113.778-56.889-98.719-98.719-56.889-113.778 0-98.719 56.889q-45.176 45.176-58.562 98.719-15.059 56.889 0 113.778t58.562 100.392q41.83 41.83 98.719 56.889 56.889 11.712 113.778 0 53.542-13.386 98.719-58.562l18.405 20.078zM473.516 460.549q-10.039-10.039-6.693-25.098t18.405-18.405q15.059-5.020 26.771 6.693l214.17 214.17q8.366 8.366 8.366 20.078-3.346 13.386-8.366 18.405-6.693 6.693-18.405 6.693t-18.405-6.693zM689.359 423.739q10.039-11.712 25.098-6.693 15.059 1.673 20.078 18.405 3.346 16.732-8.366 25.098l-214.17 215.843q-6.693 6.693-18.405 6.693t-18.405-6.693q-8.366-8.366-8.366-18.405 0-13.386 6.693-20.078z" />
<glyph unicode="&#xe013;" glyph-name="PrivateUseArea-E013" horiz-adv-x="899" d="M789.752 166.065q23.425 0 40.157 15.059t16.732 36.81v187.399l-645.856 81.987v-269.386q0-21.752 16.732-36.81 15.059-15.059 38.484-15.059h533.752zM818.196-91.608q0 21.752-15.059 36.81-16.732 15.059-38.484 15.059-23.425 0-38.484-15.059-16.732-15.059-16.732-35.137 0-21.752 16.732-36.81 15.059-15.059 38.484-15.059 21.752 0 38.484 15.059 15.059 15.059 15.059 35.137zM389.856-91.608q0 21.752-15.059 36.81-16.732 15.059-38.484 15.059-23.425 0-38.484-15.059-16.732-15.059-16.732-35.137 0-21.752 16.732-36.81 15.059-15.059 38.484-15.059 21.752 0 38.484 15.059 15.059 15.059 15.059 35.137zM256 115.869q-28.444 0-55.216 13.386v-66.928q0-21.752 16.732-36.81 15.059-16.732 38.484-16.732h508.654q41.83 0 75.294-28.444 31.791-30.118 31.791-71.948 0-43.503-31.791-70.275-33.464-30.118-75.294-30.118-45.176 0-76.967 30.118-31.791 26.771-31.791 70.275 0 30.118 15.059 51.869h-242.614q15.059-21.752 15.059-51.869 0-43.503-31.791-70.275-33.464-30.118-75.294-30.118-45.176 0-76.967 30.118-31.791 26.771-31.791 70.275 0 30.118 15.059 51.869-38.484 5.020-66.928 35.137-28.444 28.444-28.444 66.928v547.137l-130.51 50.196q-11.712 5.020-13.386 15.059-5.020 8.366 0 18.405 3.346 8.366 13.386 13.386 10.039 1.673 20.078 0l150.588-60.235 5.020-3.346 6.693-8.366 1.673-8.366v-88.68l680.993-87.007 10.039-6.693 6.693-10.039 1.673-5.020v-210.824q0-41.83-31.791-71.948t-78.641-30.118h-533.752zM416.627 629.542q-6.693-6.693-6.693-15.059 0-10.039 6.693-16.732t16.732-6.693q8.366 0 16.732 5.020l189.072 189.072q5.020 6.693 5.020 18.405 0 8.366-6.693 15.059t-15.059 6.693q-10.039 0-16.732-6.693zM605.699 596.078q6.693-5.020 16.732-5.020 8.366 0 15.059 6.693 5.020 5.020 8.366 16.732 0 8.366-6.693 15.059l-189.072 189.072q-6.693 6.693-16.732 6.693t-16.732-6.693-6.693-15.059q0-11.712 6.693-18.405z" />
<glyph unicode="&#xe014;" glyph-name="PrivateUseArea-E014" d="M898.51 214.588q26.771 0 45.176 18.405t18.405 41.83v212.497l-734.536 93.699v-307.869q0-23.425 20.078-40.157 18.405-18.405 43.503-18.405h607.373zM931.974-76.549q0 21.752-18.405 40.157-16.732 16.732-43.503 16.732-28.444 0-45.176-16.732-18.405-18.405-18.405-40.157 0-23.425 18.405-41.83 16.732-16.732 45.176-16.732 26.771 0 43.503 16.732 18.405 18.405 18.405 41.83zM443.399-76.549q0 23.425-16.732 40.157t-43.503 16.732q-28.444 0-45.176-16.732-18.405-18.405-18.405-40.157 0-23.425 18.405-41.83 16.732-16.732 45.176-16.732 26.771 0 43.503 16.732t16.732 41.83zM227.556 637.908v107.085l-5.020 10.039-10.039 8.366-170.667 66.928q-11.712 1.673-23.425 0-11.712-5.020-15.059-15.059-5.020-11.712 0-21.752 1.673-11.712 15.059-16.732l148.915-56.889v-622.431q0-45.176 31.791-76.967 31.791-33.464 76.967-38.484-18.405-28.444-18.405-58.562 0-50.196 36.81-81.987 38.484-33.464 87.007-33.464t87.007 33.464q36.81 31.791 36.81 81.987 0 30.118-16.732 56.889h274.405q-16.732-26.771-16.732-56.889 0-50.196 36.81-81.987 36.81-33.464 87.007-33.464 48.523 0 87.007 33.464 35.137 33.464 35.137 81.987t-35.137 80.314q-38.484 33.464-87.007 33.464h-578.928q-25.098 0-43.503 18.405-20.078 16.732-20.078 41.83v76.967q28.444-16.732 63.582-16.732h607.373q51.869 0 88.68 35.137 36.81 31.791 36.81 80.314v240.941l-1.673 8.366-8.366 10.039-10.039 6.693-157.281 20.078q1.673-50.196-15.059-97.046-18.405-48.523-53.542-83.66-33.464-36.81-80.314-56.889-48.523-20.078-97.046-20.078-58.562 0-110.431 26.771-56.889 30.118-88.68 73.621-35.137 48.523-45.176 105.412-10.039 58.562 6.693 113.778zM600.68 796.863q-65.255 0-123.817-33.464-58.562-31.791-90.353-90.353-33.464-58.562-33.464-123.817t33.464-123.817q31.791-58.562 90.353-90.353 58.562-33.464 123.817-33.464t123.817 33.464q58.562 31.791 90.353 90.353 31.791 56.889 31.791 123.817t-31.791 123.817q-31.791 58.562-90.353 90.353-58.562 33.464-123.817 33.464zM600.68 823.634q-75.294 0-137.203-36.81-63.582-38.484-100.392-98.719-36.81-61.908-36.81-137.203t36.81-137.203q38.484-63.582 100.392-100.392t137.203-36.81 137.203 36.81q60.235 36.81 98.719 100.392 36.81 61.908 36.81 137.203t-36.81 137.203-98.719 98.719-137.203 36.81v0zM600.68 770.092q58.562 0 110.431-28.444 50.196-30.118 80.314-80.314 30.118-53.542 30.118-112.105 0-60.235-30.118-110.431t-80.314-80.314-110.431-30.118-110.431 30.118q-51.869 30.118-80.314 80.314-30.118 50.196-30.118 110.431 0 58.562 30.118 112.105 28.444 50.196 80.314 80.314 51.869 28.444 110.431 28.444v0zM600.68 396.967v0zM752.941 549.229v0z" />
<glyph unicode="&#xe015;" glyph-name="PrivateUseArea-E015" horiz-adv-x="873" d="M766.327 154.353q23.425 0 40.157 15.059 15.059 15.059 15.059 36.81v180.706l-627.451 80.314v-261.020q0-21.752 16.732-36.81 15.059-15.059 38.484-15.059h517.020zM794.771-93.281q0 20.078-15.059 35.137-18.405 13.386-38.484 13.386t-36.81-13.386q-15.059-15.059-15.059-35.137 0-21.752 15.059-35.137 15.059-15.059 36.81-15.059t38.484 15.059q15.059 13.386 15.059 35.137zM378.144-93.281q0 20.078-15.059 35.137-16.732 13.386-36.81 13.386t-36.81-13.386q-16.732-15.059-16.732-35.137 0-23.425 16.732-35.137 15.059-15.059 36.81-15.059t36.81 15.059q15.059 13.386 15.059 35.137zM249.307 105.83q-28.444 0-55.216 13.386v-65.255q0-20.078 16.732-35.137 15.059-15.059 38.484-15.059h491.922q41.83 0 75.294-28.444 30.118-26.771 30.118-68.601t-30.118-70.275q-33.464-28.444-75.294-28.444t-73.621 28.444q-31.791 26.771-31.791 68.601 0 26.771 15.059 50.196h-234.248q13.386-23.425 13.386-50.196 0-40.157-30.118-68.601-33.464-28.444-75.294-28.444t-73.621 28.444q-30.118 26.771-30.118 68.601 0 30.118 15.059 51.869-36.81 1.673-66.928 31.791-26.771 26.771-26.771 65.255v532.078l-125.49 48.523q-10.039 3.346-13.386 13.386-5.020 10.039 0 20.078 3.346 8.366 13.386 11.712 10.039 1.673 20.078 0l145.569-56.889 8.366-8.366 3.346-10.039v-88.68l662.588-85.333 8.366-5.020 6.693-10.039 1.673-5.020v-204.131q0-43.503-30.118-70.275-31.791-30.118-76.967-30.118h-517.020zM512 520.784v0zM642.51 651.294v0z" />
<glyph unicode="&#xe016;" glyph-name="PrivateUseArea-E016" d="M861.699 197.856q26.771 0 43.503 16.732t16.732 40.157v204.131l-702.745 90.353v-294.484q0-21.752 18.405-40.157 16.732-16.732 41.83-16.732h582.275zM893.49-81.569q0 23.425-16.732 40.157-16.732 15.059-43.503 15.059-25.098 0-41.83-16.732-18.405-18.405-18.405-38.484 0-23.425 18.405-38.484 16.732-16.732 41.83-16.732 26.771 0 43.503 16.732 16.732 15.059 16.732 38.484zM424.993-81.569q0 23.425-16.732 40.157-18.405 15.059-41.83 15.059-25.098 0-41.83-16.732-18.405-18.405-18.405-38.484 0-23.425 18.405-38.484 16.732-16.732 41.83-16.732t41.83 16.732q16.732 15.059 16.732 38.484zM279.425 142.641q-31.791 0-60.235 15.059v-73.621q0-21.752 18.405-40.157 16.732-16.732 41.83-16.732h553.83q50.196 0 83.66-31.791 35.137-31.791 35.137-76.967 0-43.503-35.137-76.967-36.81-33.464-83.66-33.464t-83.66 33.464q-35.137 33.464-35.137 76.967 0 31.791 16.732 55.216h-264.366q16.732-23.425 16.732-55.216 0-43.503-33.464-76.967-36.81-33.464-83.66-33.464-50.196 0-83.66 33.464-35.137 33.464-35.137 76.967 0 31.791 16.732 55.216-48.523 8.366-73.621 38.484-30.118 30.118-30.118 71.948v597.333l-142.222 55.216q-11.712 5.020-15.059 15.059-5.020 10.039 0 21.752 3.346 10.039 15.059 15.059 13.386 3.346 21.752-1.673l163.974-63.582 5.020-3.346 6.693-8.366 3.346-11.712v-95.373l742.902-97.046 10.039-5.020 5.020-6.693 3.346-8.366 1.673-3.346v-229.229q0-45.176-35.137-78.641-38.484-33.464-85.333-33.464h-582.275z" />
<glyph unicode="&#xe017;" glyph-name="PrivateUseArea-E017" horiz-adv-x="1126" d="M1070.85 341.752q3.346 18.405-3.346 28.444l-107.085 182.379-252.654-143.895h205.804q30.118 0 51.869-21.752t21.752-51.869v-55.216l65.255 36.81q13.386 8.366 18.405 25.098zM952.052 335.059q0 16.732-11.712 28.444t-26.771 11.712h-828.235q-16.732-3.346-25.098-11.712-10.039-13.386-10.039-26.771v-455.111q0-15.059 11.712-26.771t26.771-11.712h824.889q15.059 0 26.771 11.712t11.712 26.771v453.438zM135.529 408.68h220.863l515.346 294.484-35.137 60.235q-8.366 13.386-23.425 18.405-20.078 3.346-30.118-3.346zM890.144 673.046l-466.824-264.366h215.843l304.523 172.34zM1095.948 386.928q15.059-26.771 8.366-53.542-6.693-30.118-35.137-45.176l-81.987-46.85v-359.739q0-30.118-21.752-50.196-21.752-21.752-51.869-21.752h-824.889q-30.118 0-51.869 21.752-21.752 20.078-21.752 50.196v455.111q0 20.078 10.039 36.81t26.771 26.771l714.458 406.588q26.771 15.059 55.216 8.366 30.118-6.693 45.176-35.137zM170.667 164.392q-8.366 0-13.386 5.020t-5.020 13.386q0 6.693 5.020 11.712t13.386 5.020h105.412q6.693 0 11.712-5.020t5.020-11.712q0-8.366-5.020-13.386t-11.712-5.020h-105.412zM831.582 199.529q8.366 0 13.386-5.020t5.020-11.712q0-8.366-5.020-13.386t-13.386-5.020h-105.412q-6.693 0-11.712 5.020t-5.020 13.386q0 6.693 5.020 11.712t11.712 5.020h105.412zM647.529 199.529q6.693 0 11.712-5.020t5.020-11.712q0-8.366-5.020-13.386t-11.712-5.020h-107.085q-6.693 0-11.712 5.020t-5.020 13.386q0 6.693 5.020 11.712t11.712 5.020h107.085zM478.536 181.124q0-6.693-5.020-11.712t-11.712-5.020h-107.085q-6.693 0-11.712 5.020t-5.020 13.386q0 6.693 5.020 11.712t11.712 5.020h107.085q6.693 0 11.712-5.020t5.020-13.386zM170.667-41.412h110.431v-36.81h-110.431v36.81zM282.771-7.948q11.712 0 23.425-8.366 10.039-10.039 10.039-23.425v-40.157q0-15.059-10.039-21.752-10.039-10.039-23.425-10.039h-113.778q-13.386 0-23.425 10.039-10.039 6.693-10.039 21.752v40.157q0 13.386 10.039 23.425 11.712 8.366 23.425 8.366h113.778zM491.922-43.085q8.366 0 13.386-5.020t5.020-11.712-5.020-11.712-13.386-5.020h-113.778q-6.693 0-11.712 5.020t-5.020 11.712 5.020 11.712 11.712 5.020h113.778z" />
<glyph unicode="&#xe018;" glyph-name="PrivateUseArea-E018" horiz-adv-x="1302" d="M1139.451 832l127.163-112.105-757.961-868.392-508.654 491.922 117.124 123.817 381.49-366.431z" />
<glyph unicode="&#xe01a;" glyph-name="PrivateUseArea-E01A" horiz-adv-x="979" d="M943.686 768.418q6.693-6.693 6.693-20.078 0-15.059-6.693-21.752l-409.935-409.935 409.935-409.935q10.039-8.366 10.039-20.078 0-13.386-8.366-21.752-10.039-10.039-23.425-8.366-13.386 0-21.752 8.366l-409.935 408.261-421.647-421.647q-10.039-10.039-21.752-8.366-13.386 0-21.752 8.366-10.039 6.693-10.039 21.752 0 11.712 8.366 20.078l423.32 423.32-421.647 423.32q-8.366 8.366-8.366 20.078 0 13.386 8.366 21.752t21.752 8.366q10.039 0 21.752-8.366l421.647-423.32 409.935 409.935q8.366 8.366 21.752 8.366 10.039 0 21.752-8.366z" />
<glyph unicode="&#xe01b;" glyph-name="PrivateUseArea-E01B" horiz-adv-x="1442" d="M266.039 599.425q71.948 0 128.837-35.137 58.562-35.137 93.699-93.699 33.464-58.562 33.464-127.163 0-70.275-33.464-128.837-36.81-60.235-93.699-92.026-56.889-35.137-127.163-35.137-71.948 0-128.837 35.137-60.235 31.791-93.699 92.026-35.137 58.562-35.137 128.837t35.137 127.163q33.464 58.562 93.699 93.699 58.562 35.137 127.163 35.137zM266.039 152.68q51.869 0 95.373 25.098t70.275 70.275q25.098 41.83 25.098 95.373t-25.098 95.373q-28.444 43.503-70.275 68.601-43.503 25.098-95.373 25.098t-95.373-25.098-68.601-68.601q-26.771-43.503-26.771-95.373 0-53.542 26.771-95.373 25.098-45.176 68.601-70.275t95.373-25.098zM1176.261 89.098q-48.523 0-97.046 20.078-43.503 16.732-83.66 53.542-48.523 50.196-65.255 115.451t0 132.183q18.405 66.928 65.255 113.778 36.81 36.81 83.66 56.889 50.196 18.405 98.719 18.405 46.85 0 97.046-18.405 46.85-20.078 83.66-56.889 35.137-38.484 55.216-81.987 18.405-50.196 18.405-97.046 0-48.523-18.405-98.719-20.078-46.85-56.889-81.987-38.484-38.484-81.987-55.216-46.85-20.078-98.719-20.078zM985.516 304.941q3.346-15.059 13.386-41.83l257.673 259.346q-26.771 10.039-40.157 13.386zM1025.673 219.608q11.712-15.059 26.771-26.771l274.405 274.405q-11.712 15.059-26.771 26.771zM1368.68 383.582q-3.346 13.386-13.386 40.157l-259.346-257.673q21.752-11.712 40.157-13.386zM1315.137 206.222q45.176 45.176 55.216 108.758l-163.974-163.974q63.582 10.039 108.758 55.216zM1039.059 482.301q-45.176-45.176-55.216-108.758l163.974 163.974q-63.582-10.039-108.758-55.216zM721.15-146.824v0zM721.15 212.915v0zM721.15 555.922v0z" />
<glyph unicode="&#xe01c;" glyph-name="PrivateUseArea-E01C" horiz-adv-x="1441" d="M1372.026 832q28.444 0 48.523-20.078t20.078-48.523v-886.797q0-28.444-20.078-48.523t-48.523-20.078h-1301.752q-30.118 0-50.196 20.078t-20.078 48.523v886.797q0 28.444 20.078 48.523t48.523 20.078h1303.425zM51.869 467.242h1336.889v157.281h-1336.889v-157.281zM70.275 780.131q-8.366 0-13.386-5.020t-5.020-11.712v-87.007h1336.889v85.333q0 8.366-5.020 13.386t-11.712 5.020h-1301.752zM1372.026-140.131q6.693 0 11.712 5.020t5.020 11.712v538.771h-1336.889v-538.771q0-6.693 5.020-11.712t11.712-5.020h1303.425zM1171.242 241.359q63.582 0 105.412-41.83 43.503-43.503 43.503-105.412 0-45.176-25.098-81.987-23.425-35.137-65.255-53.542-43.503-18.405-85.333-8.366-43.503 6.693-76.967 40.157-43.503-43.503-103.739-43.503t-103.739 43.503-43.503 105.412q0 60.235 43.503 103.739 41.83 41.83 103.739 41.83t103.739-41.83q41.83 41.83 103.739 41.83zM1171.242-1.255q40.157 0 68.601 28.444t28.444 66.928q0 30.118-16.732 53.542-18.405 23.425-43.503 35.137-26.771 10.039-55.216 5.020t-48.523-25.098q-15.059-16.732-36.81-16.732t-36.81 16.732q-20.078 20.078-48.523 25.098t-55.216-5.020q-26.771-11.712-41.83-35.137-16.732-23.425-16.732-53.542t16.732-51.869q15.059-25.098 41.83-35.137 26.771-11.712 55.216-5.020 28.444 5.020 48.523 25.098 15.059 15.059 36.81 15.059t36.81-15.059q28.444-28.444 66.928-28.444zM572.235 189.49q11.712 0 18.405-6.693t6.693-18.405-6.693-18.405q-8.366-8.366-18.405-8.366h-416.627q-8.366 0-16.732 8.366t-8.366 18.405 8.366 18.405q6.693 6.693 16.732 6.693h416.627zM348.026 69.020q11.712-3.346 16.732-8.366 6.693-6.693 6.693-18.405 0-10.039-6.693-16.732-8.366-8.366-16.732-10.039h-192.418q-8.366 1.673-16.732 10.039-6.693 6.693-6.693 16.732 0 11.712 6.693 18.405 5.020 5.020 16.732 8.366h192.418z" />
<glyph unicode="&#xe01d;" glyph-name="PrivateUseArea-E01D" horiz-adv-x="1938" d="M247.634 622.85q-66.928 0-123.817-31.791-56.889-33.464-90.353-90.353-33.464-58.562-33.464-122.144v-381.49h56.889q15.059 35.137 33.464 60.235l3.346 5.020h-28.444v204.131h224.209v245.961h-162.301q51.869 46.85 120.471 46.85h180.706v-562.196h558.85q13.386 41.83 33.464 65.255h-527.059v702.745h1024v-702.745h-155.608q10.039-16.732 21.752-53.542l3.346-11.712h195.765v831.582h-1154.51v-205.804h-180.706zM65.255 331.712v46.85q0 35.137 15.059 68.601h143.895v-115.451h-158.954zM1194.667 122.562q-63.582 0-112.105-45.176-46.85-46.85-46.85-112.105t46.85-110.431q46.85-46.85 112.105-46.85t112.105 46.85q46.85 45.176 46.85 110.431t-46.85 112.105q-48.523 45.176-112.105 45.176zM1194.667-126.745q-38.484 0-65.255 26.771-28.444 28.444-28.444 65.255 0 38.484 28.444 66.928 26.771 26.771 65.255 26.771 40.157 0 66.928-26.771t26.771-66.928q0-38.484-26.771-65.255t-66.928-26.771zM1259.922-34.719q0 25.098-18.405 46.85-21.752 18.405-46.85 18.405-26.771 0-45.176-18.405-20.078-20.078-20.078-46.85t20.078-45.176q18.405-18.405 45.176-18.405 25.098 0 46.85 18.405 18.405 18.405 18.405 45.176zM257.673 122.562q-66.928 0-113.778-45.176-46.85-46.85-46.85-112.105t46.85-110.431q46.85-46.85 113.778-46.85 65.255 0 112.105 46.85 46.85 45.176 46.85 110.431t-46.85 112.105q-48.523 45.176-112.105 45.176zM257.673-126.745q-38.484 0-65.255 26.771-28.444 28.444-28.444 65.255 0 38.484 28.444 66.928 26.771 26.771 65.255 26.771 40.157 0 66.928-26.771t26.771-66.928q0-38.484-26.771-65.255t-66.928-26.771zM321.255-34.719q0 25.098-18.405 46.85-18.405 18.405-45.176 18.405t-45.176-18.405q-20.078-20.078-20.078-46.85t20.078-45.176q18.405-18.405 45.176-18.405t45.176 18.405 18.405 45.176zM1937.569 753.359h-242.614v65.255h242.614v-65.255zM1882.353 614.484h-187.399v65.255h187.399v-65.255zM992.209 182.797q71.948 0 132.183 35.137t95.373 95.373q35.137 56.889 35.137 128.837 0 70.275-35.137 130.51t-95.373 95.373q-61.908 33.464-130.51 33.464-70.275 0-132.183-33.464-60.235-35.137-95.373-95.373t-35.137-130.51q0-71.948 35.137-128.837 35.137-60.235 95.373-95.373t130.51-35.137zM992.209 637.908q55.216 0 98.719-26.771t71.948-70.275q26.771-43.503 26.771-97.046 0-55.216-26.771-98.719-28.444-45.176-71.948-70.275-43.503-26.771-98.719-26.771t-98.719 26.771q-45.176 25.098-70.275 70.275-26.771 43.503-26.771 98.719 0 53.542 26.771 97.046 25.098 43.503 70.275 70.275 43.503 26.771 98.719 26.771zM1000.575 309.961l117.124 103.739-43.503 48.523-61.908-53.542-90.353 132.183-55.216-38.484z" />
<glyph unicode="&#xe01e;" glyph-name="PrivateUseArea-E01E" d="M50.196 527.477q-5.020 6.693-5.020 15.059 0 6.693 5.020 11.712l224.209 220.863q5.020 5.020 13.386 5.020 6.693 0 13.386-5.020l222.536-220.863q5.020-5.020 5.020-11.712 0-8.366-5.020-13.386-5.020-6.693-13.386-6.693t-13.386 5.020l-190.745 187.399v-844.967q0-8.366-5.020-13.386-6.693-5.020-13.386-5.020-8.366 0-13.386 5.020-6.693 5.020-6.693 13.386v844.967l-189.072-187.399q-8.366-5.020-13.386-5.020-8.366 0-15.059 5.020zM962.092-111.686q8.366 0 13.386-5.020t5.020-13.386-5.020-13.386-13.386-5.020h-575.582q-8.366 0-13.386 5.020t-5.020 13.386 5.020 13.386 13.386 5.020h575.582zM962.092 109.176q8.366 0 15.059-5.020 5.020-5.020 5.020-11.712-3.346-10.039-6.693-13.386-5.020-6.693-13.386-6.693h-575.582q-8.366 0-13.386 6.693-5.020 5.020-5.020 13.386 0 6.693 5.020 11.712t13.386 5.020h575.582zM962.092 331.712q8.366 0 13.386-5.020 5.020-8.366 5.020-13.386 0-8.366-5.020-13.386-5.020-6.693-13.386-6.693h-575.582q-8.366 0-13.386 6.693-5.020 5.020-5.020 13.386 0 6.693 5.020 13.386 5.020 5.020 13.386 5.020h575.582zM587.294 514.092q-8.366 0-13.386 6.693-6.693 5.020-6.693 13.386 0 6.693 6.693 13.386 5.020 5.020 13.386 5.020h374.797q8.366 0 15.059-5.020 5.020-8.366 5.020-13.386 0-8.366-5.020-13.386-6.693-6.693-15.059-6.693h-374.797zM587.294 736.627q-8.366 0-13.386 5.020-6.693 5.020-6.693 13.386t6.693 13.386q5.020 5.020 13.386 5.020h374.797q8.366 0 15.059-5.020 5.020-5.020 5.020-13.386t-5.020-13.386q-6.693-5.020-15.059-5.020h-374.797z" />
<glyph unicode="&#xe01f;" glyph-name="PrivateUseArea-E01F" horiz-adv-x="955" d="M945.359 244.706q16.732-31.791 6.693-65.255-13.386-33.464-43.503-50.196l-73.621-40.157q-11.712-6.693-15.059-20.078l-15.059-83.66q-8.366-33.464-35.137-53.542-26.771-21.752-61.908-16.732l-83.66 11.712q-15.059 1.673-25.098-8.366l-60.235-58.562q-25.098-25.098-60.235-25.098t-60.235 25.098l-61.908 58.562q-10.039 10.039-23.425 8.366l-83.66-11.712q-35.137-5.020-63.582 15.059t-35.137 55.216l-13.386 83.66q-3.346 13.386-15.059 20.078l-75.294 40.157q-31.791 16.732-41.83 50.196-11.712 33.464 5.020 65.255l36.81 75.294q6.693 13.386 0 25.098l-36.81 76.967q-18.405 30.118-5.020 63.582 10.039 33.464 41.83 50.196l75.294 40.157q11.712 8.366 15.059 20.078l13.386 83.66q6.693 35.137 35.137 55.216t63.582 15.059l83.66-11.712q11.712-3.346 23.425 8.366l61.908 58.562q25.098 25.098 60.235 25.098t60.235-25.098l60.235-58.562q10.039-10.039 25.098-8.366l83.66 11.712q33.464 5.020 61.908-15.059 26.771-20.078 35.137-55.216l15.059-83.66q3.346-11.712 15.059-20.078l73.621-40.157q31.791-16.732 43.503-48.523 10.039-33.464-6.693-65.255l-36.81-76.967q-8.366-11.712 0-25.098zM881.778 179.451q11.712 8.366 15.059 18.405t-1.673 21.752l-38.484 75.294q-8.366 20.078-8.366 38.484 0 16.732 8.366 36.81l38.484 76.967q5.020 8.366 1.673 21.752-5.020 11.712-15.059 16.732l-73.621 40.157q-18.405 8.366-30.118 25.098t-15.059 35.137l-15.059 83.66q-1.673 11.712-11.712 18.405t-21.752 5.020l-83.66-11.712q-41.83-5.020-71.948 23.425l-60.235 60.235q-8.366 8.366-20.078 8.366-10.039 0-21.752-8.366l-60.235-60.235q-30.118-28.444-71.948-23.425l-83.66 11.712q-11.712 1.673-21.752-5.020t-11.712-18.405l-15.059-83.66q-1.673-18.405-15.059-35.137-13.386-18.405-28.444-25.098l-75.294-40.157q-11.712-5.020-13.386-16.732-5.020-13.386 1.673-21.752l36.81-76.967q8.366-20.078 8.366-36.81 0-18.405-8.366-38.484l-36.81-75.294q-6.693-11.712-1.673-21.752 1.673-10.039 13.386-18.405l75.294-38.484q15.059-8.366 28.444-25.098 13.386-18.405 15.059-36.81l15.059-83.66q1.673-11.712 11.712-18.405t21.752-5.020l83.66 11.712q23.425 3.346 40.157-3.346 20.078-8.366 31.791-20.078l60.235-58.562q11.712-8.366 21.752-8.366 11.712 0 20.078 8.366l60.235 58.562q13.386 11.712 33.464 20.078 15.059 6.693 38.484 3.346l83.66-11.712q11.712-1.673 21.752 5.020t11.712 18.405l15.059 83.66q1.673 18.405 15.059 36.81 11.712 15.059 30.118 25.098zM687.686 542.536q8.366-8.366 8.366-20.078t-8.366-20.078l-378.144-379.817q-8.366-8.366-20.078-8.366-13.386 0-21.752 8.366t-8.366 21.752q0 11.712 8.366 20.078l379.817 378.144q8.366 8.366 20.078 8.366t20.078-8.366zM363.085 591.059q41.83 0 75.294-30.118 30.118-33.464 30.118-75.294 0-43.503-30.118-73.621-31.791-31.791-75.294-31.791t-73.621 31.791q-31.791 30.118-31.791 73.621t31.791 75.294q30.118 30.118 73.621 30.118zM363.085 437.124q20.078 0 35.137 15.059 13.386 13.386 13.386 33.464 0 18.405-13.386 35.137-16.732 13.386-35.137 13.386-20.078 0-33.464-13.386-15.059-15.059-15.059-35.137 0-21.752 15.059-33.464 11.712-15.059 33.464-15.059zM592.314 284.863q43.503 0 75.294-30.118 30.118-31.791 30.118-75.294t-30.118-73.621q-31.791-31.791-75.294-31.791t-73.621 31.791q-31.791 30.118-31.791 73.621t31.791 75.294q30.118 30.118 73.621 30.118zM592.314 132.601q18.405 0 35.137 13.386 13.386 13.386 13.386 33.464 0 18.405-13.386 35.137-16.732 13.386-35.137 13.386-20.078 0-33.464-13.386-13.386-16.732-13.386-35.137 0-20.078 13.386-33.464t33.464-13.386z" />
<glyph unicode="&#xe020;" glyph-name="PrivateUseArea-E020" d="M617.412 2.092q-5.020 25.098-1.673 55.216-83.66-43.503-175.686-43.503-90.353-1.673-174.013 38.484t-138.876 115.451q-58.562 75.294-70.275 167.32-15.059 88.68 13.386 179.033t93.699 155.608q68.601 66.928 155.608 93.699 83.66 26.771 179.033 13.386 90.353-15.059 165.647-70.275 76.967-58.562 115.451-138.876 40.157-83.66 40.157-175.686-3.346-92.026-45.176-175.686 30.118 3.346 55.216-1.673 43.503 92.026 40.157 195.765-1.673 98.719-51.869 192.418-46.85 88.68-133.856 150.588-85.333 60.235-185.725 75.294-105.412 13.386-199.111-18.405-100.392-33.464-172.34-105.412-73.621-73.621-105.412-170.667t-16.732-199.111q11.712-100.392 73.621-187.399t150.588-133.856q93.699-50.196 192.418-51.869 103.739-3.346 195.765 40.157zM793.098-192q65.255 0 117.124 31.791 48.523 28.444 83.66 83.66 30.118 51.869 30.118 115.451t-30.118 115.451q-31.791 51.869-83.66 83.66-53.542 30.118-115.451 30.118-65.255 0-117.124-30.118-53.542-30.118-83.66-83.66-30.118-51.869-30.118-115.451t30.118-115.451q30.118-53.542 83.66-83.66 51.869-31.791 115.451-31.791zM793.098-140.131q-46.85 0-88.68 23.425-41.83 21.752-65.255 65.255-25.098 43.503-25.098 90.353t25.098 90.353q23.425 40.157 65.255 65.255 41.83 23.425 88.68 23.425t90.353-23.425q43.503-25.098 65.255-65.255 23.425-43.503 23.425-90.353t-23.425-90.353q-21.752-43.503-65.255-65.255-43.503-23.425-90.353-23.425zM460.131 582.693q18.405-1.673 45.176-11.712 16.732-6.693 28.444-16.732l10.039-6.693-23.425-41.83-10.039 8.366q-8.366 5.020-28.444 15.059-18.405 6.693-40.157 6.693-30.118 0-46.85-15.059-18.405-15.059-18.405-36.81t21.752-38.484q13.386-8.366 50.196-25.098 53.542-21.752 68.601-36.81 33.464-28.444 33.464-70.275 0-35.137-23.425-63.582-25.098-28.444-66.928-35.137v-48.523h-50.196v48.523q-28.444 1.673-50.196 15.059-15.059 6.693-31.791 20.078l-10.039 10.039 28.444 38.484 11.712-10.039q11.712-10.039 31.791-18.405 21.752-10.039 48.523-10.039 25.098 0 43.503 13.386 16.732 11.712 16.732 38.484 0 25.098-21.752 41.83-8.366 6.693-53.542 26.771-48.523 23.425-66.928 36.81-30.118 26.771-30.118 65.255 0 33.464 23.425 61.908 21.752 26.771 60.235 35.137v48.523h50.196v-45.176zM665.935 12.131h256v51.869h-256v-51.869z" />
<glyph unicode="&#xe021;" glyph-name="PrivateUseArea-E021" d="M215.843 323.346q0 26.771 20.078 45.176 18.405 18.405 45.176 18.405 25.098 0 46.85-18.405 18.405-18.405 18.405-45.176t-18.405-45.176q-21.752-18.405-46.85-18.405-26.771 0-45.176 18.405-20.078 18.405-20.078 45.176zM448.418 323.346q0 26.771 20.078 45.176 18.405 18.405 45.176 18.405t45.176-18.405 18.405-45.176-18.405-45.176-45.176-18.405-45.176 18.405q-20.078 18.405-20.078 45.176zM680.993 323.346q0 26.771 18.405 45.176t45.176 18.405q25.098 0 46.85-18.405 18.405-18.405 18.405-45.176t-18.405-45.176q-21.752-18.405-46.85-18.405-26.771 0-45.176 18.405t-18.405 45.176zM510.327 821.961q137.203 0 256-68.601 117.124-68.601 184.052-180.706 68.601-118.797 68.601-252.654 0-135.529-70.275-254.327-68.601-113.778-182.379-180.706-118.797-68.601-256-68.601-138.876 0-257.673 68.601-115.451 68.601-182.379 180.706-68.601 118.797-68.601 254.327 0 133.856 68.601 252.654 66.928 112.105 182.379 180.706 118.797 68.601 257.673 68.601zM510.327-115.033q117.124 0 219.19 58.562 100.392 56.889 160.627 158.954 58.562 98.719 58.562 215.843-1.673 117.124-60.235 217.516t-158.954 157.281q-102.065 56.889-219.19 56.889-120.471 0-219.19-56.889-102.065-56.889-160.627-157.281-58.562-102.065-58.562-217.516 0-117.124 58.562-215.843 58.562-102.065 160.627-158.954 102.065-58.562 219.19-58.562z" />
<glyph unicode="&#xe022;" glyph-name="PrivateUseArea-E022" horiz-adv-x="4534" d="M3510.379 320q0 138.876 70.275 257.673 65.255 115.451 184.052 184.052 117.124 70.275 257.673 70.275 138.876 0 259.346-70.275 118.797-68.601 184.052-184.052 68.601-118.797 68.601-257.673t-68.601-257.673q-65.255-115.451-184.052-184.052-120.471-70.275-259.346-70.275-140.549 0-257.673 70.275-118.797 68.601-184.052 184.052-70.275 118.797-70.275 257.673zM1755.19 320q0 138.876 70.275 257.673 66.928 117.124 184.052 184.052 118.797 70.275 257.673 70.275t259.346-70.275q115.451-68.601 182.379-184.052 70.275-118.797 70.275-257.673 0-140.549-70.275-257.673-66.928-115.451-182.379-184.052-120.471-70.275-259.346-70.275t-257.673 70.275q-117.124 66.928-184.052 184.052-70.275 118.797-70.275 257.673zM0 320q0 138.876 70.275 257.673 66.928 117.124 184.052 184.052 117.124 70.275 257.673 70.275 138.876 0 257.673-70.275 117.124-66.928 184.052-184.052 70.275-118.797 70.275-257.673 0-140.549-70.275-257.673-66.928-117.124-184.052-184.052-118.797-70.275-257.673-70.275-140.549 0-257.673 70.275-117.124 66.928-184.052 184.052-70.275 117.124-70.275 257.673z" />
<glyph unicode="&#xe023;" glyph-name="PrivateUseArea-E023" d="M849.987 596.078q48.523-58.562 73.621-127.163 25.098-70.275 25.098-145.569-41.83 10.039-102.065 15.059-113.778 10.039-202.458-1.673-21.752 53.542-38.484 87.007 103.739 43.503 180.706 105.412 40.157 35.137 63.582 66.928zM409.935 744.993q46.85 11.712 102.065 11.712 78.641 0 155.608-28.444 70.275-26.771 133.856-81.987-21.752-30.118-58.562-61.908-73.621-56.889-170.667-95.373-68.601 130.51-162.301 256zM83.66 408.68q23.425 103.739 87.007 182.379 63.582 81.987 155.608 123.817 85.333-120.471 162.301-252.654-123.817-33.464-271.059-46.85-68.601-6.693-133.856-6.693zM187.399 27.19q-58.562 63.582-85.333 142.222-30.118 75.294-26.771 163.974 63.582-3.346 148.915 5.020 163.974 15.059 299.503 56.889 13.386-25.098 36.81-75.294l-18.405-5.020q-140.549-45.176-257.673-163.974-60.235-60.235-97.046-123.817zM682.667-83.242q-83.66-35.137-170.667-35.137-73.621 0-142.222 25.098-63.582 21.752-125.49 66.928 25.098 53.542 81.987 110.431 107.085 108.758 261.020 163.974h1.673q65.255-163.974 93.699-331.294zM943.686 249.725q-15.059-85.333-63.582-165.647-46.85-75.294-123.817-127.163-5.020 36.81-23.425 107.085-26.771 112.105-61.908 204.131 85.333 15.059 182.379 1.673 53.542-6.693 90.353-20.078zM512-192q138.876 0 257.673 70.275 117.124 66.928 184.052 184.052 70.275 117.124 70.275 257.673 0 138.876-70.275 257.673-66.928 117.124-184.052 184.052-118.797 70.275-257.673 70.275-140.549 0-257.673-70.275-117.124-66.928-184.052-184.052-70.275-118.797-70.275-257.673 0-140.549 70.275-257.673 66.928-117.124 184.052-184.052 117.124-70.275 257.673-70.275z" />
<glyph unicode="&#xe024;" glyph-name="PrivateUseArea-E024" horiz-adv-x="1339" d="M1092.601 40.575q13.386 0 21.752 6.693t13.386 16.732q3.346 13.386 1.673 21.752t-11.712 18.405l-250.98 235.922 250.98 244.288q15.059 15.059 10.039 35.137-5.020 18.405-25.098 26.771-20.078 5.020-35.137-10.039l-396.549-386.51-413.281 388.183q-11.712 8.366-25.098 8.366-16.732-3.346-25.098-11.712-10.039-10.039-10.039-25.098t10.039-25.098l250.98-235.922-250.98-244.288q-15.059-15.059-10.039-35.137 5.020-21.752 26.771-26.771 20.078-6.693 35.137 8.366l252.654 247.634 133.856-125.49q11.712-10.039 26.771-10.039 13.386 0 25.098 10.039l117.124 115.451 252.654-237.595q13.386-10.039 25.098-10.039zM1191.32 758.379q26.771 0 43.503-16.732 18.405-18.405 18.405-43.503v-726.17q0-25.098-18.405-43.503t-43.503-18.405h-1057.464q-23.425 0-41.83 18.405t-18.405 43.503v726.17q0 25.098 18.405 43.503 16.732 16.732 41.83 16.732h1057.464zM1191.32-161.882q56.889 0 97.046 40.157 38.484 38.484 38.484 93.699v726.17q0 53.542-38.484 95.373-41.83 38.484-97.046 38.484h-1057.464q-55.216 0-93.699-38.484-40.157-40.157-40.157-95.373v-726.17q0-56.889 40.157-93.699 36.81-40.157 93.699-40.157h1057.464z" />
<glyph unicode="&#xe025;" glyph-name="PrivateUseArea-E025" horiz-adv-x="992" d="M766.327-183.634q41.83 0 73.621 31.791 30.118 30.118 30.118 75.294 0 41.83-30.118 75.294-31.791 30.118-73.621 30.118-43.503 0-73.621-30.118-30.118-33.464-30.118-75.294 0-45.176 30.118-75.294 30.118-31.791 73.621-31.791zM766.327-14.641q25.098 0 43.503-18.405t18.405-43.503q0-26.771-18.405-45.176t-43.503-18.405-43.503 18.405-18.405 45.176q0 25.098 18.405 43.503t43.503 18.405zM351.373-183.634q43.503 0 73.621 31.791 30.118 30.118 30.118 75.294 0 41.83-30.118 75.294-30.118 30.118-71.948 30.118-43.503 0-73.621-30.118-31.791-31.791-31.791-75.294 0-45.176 31.791-75.294 30.118-31.791 71.948-31.791zM351.373-14.641q26.771 0 45.176-18.405 16.732-16.732 16.732-43.503 0-28.444-16.732-45.176-18.405-18.405-43.503-18.405-26.771 0-45.176 18.405t-18.405 45.176q0 25.098 18.405 43.503t43.503 18.405zM848.314 70.693q8.366 0 15.059 6.693 6.693 5.020 6.693 15.059 0 8.366-6.693 15.059-6.693 5.020-15.059 5.020h-476.863q-36.81 0-65.255 25.098-28.444 21.752-36.81 60.235l-103.739 532.078q-3.346 10.039-6.693 13.386-10.039 3.346-13.386 3.346h-125.49q-8.366 0-13.386-5.020-6.693-6.693-6.693-15.059t6.693-15.059q5.020-6.693 13.386-6.693h107.085l102.065-515.346q10.039-53.542 50.196-85.333 41.83-33.464 92.026-33.464h476.863zM816.523 239.686q41.83 0 70.275 26.771 28.444 28.444 33.464 65.255 0 8.366-5.020 16.732-3.346 5.020-13.386 8.366-8.366 0-15.059-5.020-5.020-3.346-8.366-13.386-1.673-25.098-20.078-40.157-16.732-16.732-41.83-16.732h-568.889q-8.366 0-13.386-5.020-6.693-6.693-6.693-15.059t6.693-15.059q5.020-6.693 13.386-6.693h568.889zM476.863 577.673q8.366 0 15.059 6.693 5.020 6.693 5.020 15.059t-5.020 15.059q-6.693 6.693-15.059 6.693h-291.137q-8.366 0-13.386-6.693-6.693-6.693-6.693-15.059t6.693-15.059q5.020-6.693 13.386-6.693h291.137zM766.327 366.85q61.908 0 113.778 31.791 48.523 28.444 83.66 83.66 30.118 51.869 30.118 117.124t-30.118 117.124q-33.464 55.216-83.66 85.333-53.542 30.118-113.778 30.118t-113.778-30.118q-53.542-33.464-83.66-85.333t-30.118-117.124 30.118-117.124q30.118-53.542 83.66-83.66 51.869-31.791 113.778-31.791zM766.327 790.17q50.196 0 93.699-25.098 41.83-26.771 66.928-70.275t25.098-95.373-25.098-95.373q-26.771-45.176-66.928-68.601-41.83-26.771-93.699-26.771t-93.699 26.771q-43.503 25.098-68.601 68.601t-25.098 95.373 25.098 95.373q25.098 41.83 68.601 70.275 43.503 25.098 93.699 25.098zM848.314 494.013q8.366 0 15.059 6.693 6.693 5.020 6.693 15.059 0 8.366-6.693 13.386l-165.647 168.993q-6.693 6.693-15.059 6.693t-13.386-5.020q-6.693-6.693-6.693-15.059 0-10.039 5.020-15.059l165.647-170.667q6.693-5.020 15.059-5.020zM682.667 494.013q6.693 0 15.059 5.020l165.647 170.667q6.693 5.020 6.693 15.059 0 8.366-6.693 15.059-6.693 5.020-15.059 5.020t-15.059-6.693l-165.647-168.993q-5.020-5.020-5.020-13.386 0-10.039 6.693-15.059 5.020-6.693 13.386-6.693z" />
<glyph unicode="&#xe026;" glyph-name="PrivateUseArea-E026" horiz-adv-x="1417" d="M217.516 222.954q10.039 0 15.059-8.366t0-15.059q-5.020-8.366-15.059-8.366h-148.915q-10.039 0-13.386 8.366-5.020 6.693 0 15.059 3.346 8.366 13.386 8.366h148.915zM75.294 335.059q0-6.693-5.020-11.712t-11.712-5.020h-41.83q-10.039 0-15.059 8.366t0 16.732q5.020 6.693 15.059 6.693h41.83q5.020 0 11.712-3.346 5.020-5.020 5.020-11.712zM958.745 137.621q-6.693 0-11.712 5.020-5.020 3.346-5.020 10.039t5.020 11.712 11.712 5.020h214.17q5.020 0 10.039-5.020t5.020-11.712-5.020-10.039q-5.020-5.020-10.039-5.020h-214.17zM167.32 318.327q-6.693 0-11.712 5.020t-5.020 11.712 5.020 11.712q6.693 3.346 11.712 3.346h399.895q5.020 0 11.712-3.346 5.020-5.020 5.020-11.712t-5.020-11.712-11.712-5.020h-399.895zM1216.418-16.314q15.059-18.405 6.693-51.869-6.693-30.118-36.81-55.216-31.791-23.425-60.235-23.425-31.791 0-46.85 20.078-15.059 16.732-6.693 50.196 6.693 31.791 38.484 55.216t60.235 23.425q30.118 0 45.176-18.405zM557.176-16.314q16.732-18.405 8.366-51.869-10.039-31.791-38.484-55.216-31.791-23.425-60.235-23.425-31.791 0-46.85 20.078-15.059 16.732-6.693 50.196 6.693 31.791 38.484 55.216t60.235 23.425q30.118 0 45.176-18.405zM931.974 738.301q30.118-40.157 15.059-97.046l-5.020-20.078h-276.078l1.673 11.712q18.405 58.562 70.275 100.392t112.105 41.83q55.216 0 81.987-36.81zM1408.837 122.562q11.712 46.85 5.020 88.68-8.366 41.83-30.118 75.294-23.425 30.118-61.908 48.523-35.137 16.732-80.314 16.732h-148.915l66.928 249.307q1.673 6.693-3.346 15.059-5.020 5.020-11.712 5.020h-168.993l3.346 11.712q8.366 38.484 3.346 68.601t-23.425 56.889q-38.484 48.523-108.758 48.523-68.601 0-132.183-48.523-61.908-46.85-80.314-117.124l-5.020-20.078h-177.359q-13.386 0-15.059-11.712l-61.908-227.556h33.464l55.216 207.477h157.281l-16.732-58.562q-1.673-10.039 5.020-16.732t15.059-3.346q10.039 3.346 11.712 11.712l18.405 66.928h276.078l-16.732-58.562q-1.673-5.020 1.673-11.712 1.673-5.020 10.039-8.366 5.020-1.673 13.386 1.673 3.346 1.673 6.693 10.039l18.405 66.928h155.608l-103.739-388.183h33.464l31.791 117.124h157.281q35.137 0 66.928-13.386 28.444-13.386 48.523-38.484 18.405-25.098 26.771-60.235 5.020-36.81-6.693-75.294l-6.693-25.098h-48.523q-10.039 0-15.059-8.366t0-16.732q6.693-8.366 15.059-6.693h40.157l-26.771-103.739h-78.641q-3.346 18.405-15.059 33.464-25.098 31.791-68.601 31.791-35.137 0-63.582-16.732-31.791-16.732-50.196-48.523h-68.601l35.137 133.856h-31.791l-36.81-133.856h-359.739q-3.346 18.405-15.059 33.464-21.752 31.791-68.601 31.791-35.137 0-63.582-16.732t-50.196-48.523h-98.719l85.333 316.235h-33.464l-88.68-327.948q-1.673-5.020 3.346-13.386 5.020-6.693 13.386-6.693h103.739l-3.346-6.693q-11.712-45.176 13.386-78.641h-143.895q-10.039 0-13.386-8.366-5.020-8.366 0-16.732 3.346-8.366 13.386-8.366h289.464q6.693 0 11.712 5.020 1.673 1.673 5.020 8.366 1.673 3.346-1.673 11.712-1.673 3.346-8.366 6.693 35.137 28.444 48.523 71.948l3.346 15.059h445.072l-3.346-6.693q-11.712-45.176 13.386-78.641h-58.562q-6.693 0-11.712-5.020t-5.020-11.712 5.020-11.712 11.712-5.020h200.784q13.386 0 15.059 11.712t-6.693 18.405q36.81 30.118 50.196 73.621 0 1.673 1.673 6.693t1.673 8.366h88.68q13.386 0 15.059 11.712zM153.935-163.556q0 6.693-5.020 11.712t-11.712 5.020h-43.503q-6.693 0-10.039-5.020-5.020-5.020-5.020-11.712t5.020-11.712q3.346-5.020 10.039-5.020h43.503q6.693 0 11.712 5.020t5.020 11.712z" />
<glyph unicode="&#xe027;" glyph-name="PrivateUseArea-E027" d="M982.17 832q18.405 0 30.118-11.712t11.712-30.118v-940.34q0-16.732-11.712-28.444-13.386-13.386-30.118-13.386h-276.078l-1.673 384.837h127.163l31.791 158.954h-158.954v105.412q0 36.81 15.059 55.216 16.732 20.078 63.582 20.078h81.987v138.876q-41.83 6.693-118.797 6.693-93.699 0-145.569-50.196-56.889-51.869-56.889-147.242v-128.837h-127.163v-158.954h127.163v-384.837h-500.288q-16.732 0-30.118 13.386t-13.386 28.444v940.34q0 16.732 13.386 30.118 11.712 11.712 30.118 11.712h938.667z" />
<glyph unicode="&#xe029;" glyph-name="PrivateUseArea-E029" horiz-adv-x="1536" d="M110.431 832q-13.386 0-25.098-8.366-11.712-11.712-13.386-25.098v-811.503q0-13.386 11.712-23.425 10.039-10.039 23.425-10.039h137.203q11.712-58.562 66.928-103.739 51.869-41.83 122.144-41.83 71.948 0 123.817 41.83 53.542 43.503 65.255 103.739h388.183q11.712-58.562 66.928-103.739 51.869-41.83 122.144-41.83 71.948 0 123.817 41.83 53.542 43.503 65.255 103.739h43.503q25.098 0 41.83 16.732 18.405 18.405 18.405 40.157v503.634q0 63.582-46.85 105.412t-113.778 41.83h-332.967v137.203q0 13.386-10.039 23.425-11.712 10.039-25.098 10.039h-853.333zM1199.686-126.745q-46.85 0-83.66 33.464-35.137 33.464-35.137 78.641-3.346 45.176 35.137 78.641 33.464 31.791 85.333 31.791 50.196 0 83.66-31.791 35.137-33.464 35.137-78.641 0-46.85-35.137-78.641-36.81-33.464-85.333-33.464zM998.902 274.824h423.32v-256h-35.137q-11.712 61.908-65.255 102.065-51.869 40.157-122.144 40.157-68.601 0-120.471-40.157-53.542-40.157-65.255-102.065h-15.059v256zM998.902 594.405h332.967q36.81 0 65.255-23.425 25.098-25.098 25.098-58.562v-172.34h-423.32v254.327zM436.706-126.745q-48.523 0-85.333 33.464-35.137 33.464-35.137 78.641 0 46.85 35.137 78.641 33.464 31.791 85.333 31.791t85.333-31.791q35.137-31.791 35.137-78.641t-35.137-78.641q-36.81-33.464-85.333-33.464zM145.569 765.072h783.059v-746.248h-306.196q-13.386 63.582-63.582 102.065-53.542 40.157-122.144 40.157t-120.471-40.157q-55.216-41.83-66.928-102.065h-103.739v746.248z" />
<glyph unicode="&#xe02a;" glyph-name="PrivateUseArea-E02A" horiz-adv-x="1569" d="M1438.954-140.131q31.791-1.673 55.216 21.752t23.425 55.216v383.163h-486.902l165.647-160.627q6.693-6.693 6.693-18.405t-6.693-18.405-18.405-6.693-18.405 6.693l-165.647 160.627v-423.32h445.072zM51.869-64.837q1.673-30.118 25.098-53.542t53.542-21.752h811.503v423.32l-163.974-160.627q-6.693-6.693-18.405-6.693-10.039 0-18.405 8.366t-8.366 16.732q0 11.712 6.693 18.405l165.647 160.627h-853.333v-384.837zM940.34 371.869q-8.366 93.699-63.582 158.954-58.562 68.601-147.242 95.373-21.752 5.020-36.81-10.039-16.732-15.059-10.039-36.81 28.444-90.353 97.046-143.895 68.601-56.889 160.627-63.582zM51.869 371.869h732.863q-58.562 33.464-93.699 81.987-41.83 51.869-58.562 110.431-8.366 25.098-1.673 46.85 8.366 25.098 25.098 41.83 15.059 15.059 41.83 23.425 25.098 5.020 46.85-1.673 56.889-15.059 113.778-56.889 50.196-36.81 83.66-92.026v254.327h-811.503q-33.464 0-55.216-21.752-23.425-23.425-23.425-53.542v-332.967zM995.556 371.869q90.353 6.693 162.301 63.582 68.601 53.542 97.046 143.895 6.693 21.752-10.039 36.81t-38.484 10.039q-90.353-28.444-145.569-95.373-56.889-66.928-65.255-158.954zM1517.595 703.163q0 33.464-21.752 55.216t-56.889 21.752h-445.072v-254.327q36.81 55.216 85.333 92.026 53.542 40.157 112.105 56.889 21.752 6.693 48.523 1.673 26.771-8.366 41.83-23.425 13.386-15.059 23.425-41.83 8.366-23.425 0-46.85-16.732-58.562-58.562-110.431-38.484-46.85-93.699-81.987h364.758v331.294zM1438.954 832q56.889 0 93.699-36.81t36.81-90.353v-768q0-53.542-36.81-90.353-38.484-38.484-93.699-38.484h-1308.444q-53.542 0-92.026 38.484t-38.484 90.353v768q0 51.869 38.484 90.353 36.81 36.81 92.026 36.81h1308.444z" />
<glyph unicode="&#xe02b;" glyph-name="PrivateUseArea-E02B" horiz-adv-x="910" d="M356.392 408.68h182.379v-123.817h332.967v175.686h-853.333v-175.686h337.987v123.817zM803.137 234.667v-426.667h-284.444v384.837h-150.588v-384.837h-269.386v426.667h704.418zM513.673 609.464v-118.797h-127.163v118.797h127.163zM378.144 621.176q-10.039-45.176-30.118-13.386-20.078 33.464-105.412 75.294-61.908-10.039-55.216-66.928 8.366-58.562 132.183-120.471h-85.333q-107.085 66.928-137.203 120.471-10.039 18.405 5.020 55.216 11.712 28.444 41.83 65.255 30.118 35.137 53.542 48.523 26.771 15.059 33.464-1.673 23.425-43.503 147.242-162.301zM522.039 616.157q10.039-45.176 30.118-13.386t105.412 75.294q61.908-10.039 55.216-66.928-8.366-58.562-132.183-120.471h85.333q107.085 65.255 137.203 120.471 13.386 16.732-5.020 55.216-11.712 31.791-40.157 65.255t-53.542 48.523q-28.444 15.059-35.137-1.673-23.425-43.503-147.242-162.301z" />
<glyph unicode="&#xe02c;" glyph-name="PrivateUseArea-E02C" d="M811.503 832q55.216 0 107.085-28.444 48.523-28.444 76.967-76.967 28.444-51.869 28.444-107.085v-597.333q0-58.562-28.444-107.085-26.771-50.196-76.967-78.641-51.869-28.444-107.085-28.444h-597.333q-58.562 0-107.085 28.444-50.196 28.444-78.641 78.641-28.444 48.523-28.444 107.085v595.66q0 56.889 28.444 108.758 28.444 50.196 78.641 76.967 48.523 28.444 107.085 28.444h597.333zM369.778 120.889q85.333 0 138.876 55.216 51.869 51.869 51.869 138.876 0 10.039-3.346 33.464h-187.399v-68.601h113.778q-5.020-31.791-30.118-53.542-31.791-31.791-81.987-31.791-51.869 0-88.68 36.81t-36.81 88.68 36.81 88.68 85.333 36.81q46.85 0 80.314-30.118l55.216 51.869q-56.889 51.869-133.856 51.869-55.216 0-98.719-26.771-45.176-26.771-73.621-71.948-26.771-46.85-26.771-100.392 0-55.216 26.771-98.719 26.771-46.85 73.621-73.621 43.503-26.771 98.719-26.771zM853.333 348.444h-85.333v85.333h-56.889v-85.333h-85.333v-56.889h85.333v-85.333h56.889v85.333h85.333v56.889z" />
<glyph unicode="&#xe02d;" glyph-name="PrivateUseArea-E02D" horiz-adv-x="800" d="M791.425 244.706v349.699q0 16.732-10.039 28.444-11.712 10.039-26.771 10.039l-23.425-1.673h-81.987q-68.601 0-125.49 43.503-58.562 43.503-75.294 107.085h-6.693q-10.039 16.732-18.405 21.752-13.386 8.366-28.444 8.366-13.386 0-26.771-8.366-11.712-6.693-20.078-21.752h-6.693q-16.732-63.582-73.621-107.085-58.562-43.503-127.163-43.503h-15.059l-88.68 1.673q-15.059 0-25.098-10.039-11.712-11.712-11.712-28.444v-349.699q0-5.020 1.673-8.366 3.346-51.869 16.732-93.699 28.444-75.294 85.333-127.163v0q20.078-18.405 48.523-35.137l214.17-153.935q11.712-11.712 30.118-8.366 18.405-3.346 28.444 8.366l214.17 153.935q28.444 16.732 48.523 35.137v0q56.889 51.869 85.333 127.163 13.386 45.176 16.732 95.373zM701.072 540.863v-287.791q0-40.157-13.386-80.314-8.366-25.098-18.405-43.503t-36.81-45.176l-237.595-177.359q-3.346 1.673-120.471 90.353l-115.451 87.007q-25.098 21.752-36.81 43.503-8.366 13.386-18.405 41.83l-1.673 3.346q-13.386 45.176-11.712 80.314v287.791h6.693q90.353 0 174.013 46.85 85.333 48.523 122.144 118.797h5.020q38.484-76.967 108.758-120.471 70.275-45.176 155.608-45.176h38.484zM600.68 361.83q11.712 11.712 11.712 28.444 0 15.059-11.712 25.098l-10.039 11.712q-10.039 10.039-25.098 10.039-16.732 0-28.444-10.039l-167.32-194.092-117.124 117.124q-10.039 11.712-25.098 11.712-16.732 0-26.771-11.712l-11.712-10.039q-10.039-13.386-10.039-26.771t10.039-26.771l152.261-152.261q8.366-8.366 25.098-11.712 20.078-5.020 35.137 10.039z" />
<glyph unicode="&#xe02e;" glyph-name="PrivateUseArea-E02E" horiz-adv-x="920" d="M40.157 398.641v-117.124q-1.673-97.046 55.216-189.072 88.68-142.222 244.288-225.882 40.157-18.405 66.928-28.444 38.484-10.039 71.948-10.039 48.523 0 113.778 30.118 150.588 73.621 249.307 212.497 73.621 102.065 71.948 224.209-1.673 56.889-1.673 257.673l1.673 107.085q0 8.366-1.673 10.039-3.346 15.059-15.059 16.732-8.366 1.673-20.078 1.673-55.216 0-123.817 16.732-120.471 26.771-256 115.451-16.732 8.366-21.752 8.366-6.693 0-20.078-10.039-83.66-55.216-175.686-90.353-98.719-36.81-205.804-40.157-21.752 0-26.771-6.693-6.693-6.693-6.693-28.444v-254.327zM140.549 422.065q0 83.66 3.346 153.935v5.020q0 10.039 3.346 13.386l16.732 3.346q98.719 13.386 179.033 46.85 63.582 25.098 125.49 63.582 8.366 5.020 18.405 0 115.451-66.928 219.19-95.373 55.216-13.386 92.026-15.059 6.693 0 10.039-3.346t3.346-10.039l-1.673-204.131q0-68.601 1.673-87.007 1.673-75.294-40.157-140.549-83.66-133.856-227.556-200.784-68.601-31.791-142.222 1.673-157.281 78.641-235.922 225.882-25.098 46.85-25.098 98.719 1.673 21.752 1.673 95.373-1.673 21.752-1.673 48.523zM667.608 447.163q-8.366 18.405-25.098 23.425-20.078 3.346-35.137-11.712l-179.033-180.706q-6.693-5.020-10.039-5.020t-11.712 5.020l-65.255 65.255q-13.386 10.039-25.098 10.039-13.386 0-23.425-10.039t-10.039-23.425q0-15.059 10.039-25.098 48.523-50.196 98.719-98.719 11.712-11.712 26.771-11.712 13.386 0 25.098 11.712l214.17 214.17q11.712 10.039 11.712 26.771z" />
<glyph unicode="&#xe02f;" glyph-name="PrivateUseArea-E02F" d="M719.477 457.203q-3.346 25.098-18.405 40.157-18.405 15.059-38.484 15.059-23.425 0-40.157-15.059-15.059-15.059-18.405-40.157 0-15.059 8.366-28.444 6.693-13.386 20.078-21.752t30.118-8.366q15.059 0 28.444 8.366 15.059 10.039 21.752 21.752t6.693 28.444zM389.856 457.203q-3.346 25.098-18.405 40.157-18.405 15.059-38.484 15.059-21.752 0-40.157-15.059-15.059-15.059-18.405-40.157 0-15.059 8.366-28.444 6.693-13.386 20.078-21.752t30.118-8.366q15.059 0 28.444 8.366 15.059 10.039 21.752 21.752t6.693 28.444zM542.118 32.209q78.641 0 130.51 51.869t51.869 127.163q0 10.039-6.693 16.732t-16.732 6.693-16.732-6.693-6.693-16.732q0-53.542-38.484-92.026-41.83-38.484-97.046-38.484h-80.314q-56.889 0-95.373 38.484-40.157 36.81-40.157 93.699 0 10.039-6.693 16.732t-16.732 6.693-16.732-6.693-6.693-16.732q0-46.85 25.098-90.353 23.425-43.503 65.255-65.255 41.83-25.098 92.026-25.098h80.314zM496.941-170.248q137.203 0 250.98 66.928 115.451 68.601 179.033 179.033 68.601 118.797 68.601 252.654 0 132.183-68.601 249.307-63.582 110.431-179.033 179.033-117.124 68.601-249.307 68.601-133.856 0-252.654-68.601-113.778-68.601-177.359-179.033-68.601-117.124-68.601-250.98t68.601-250.98q63.582-110.431 177.359-179.033 117.124-66.928 250.98-66.928zM496.941 776.784q122.144 0 225.882-60.235 102.065-60.235 165.647-163.974 60.235-102.065 60.235-225.882t-60.235-225.882q-63.582-103.739-165.647-163.974-103.739-60.235-225.882-60.235t-224.209 60.235q-103.739 60.235-163.974 163.974-61.908 102.065-61.908 225.882t61.908 225.882q60.235 103.739 163.974 163.974 102.065 60.235 224.209 60.235z" />
<glyph unicode="&#xe030;" glyph-name="PrivateUseArea-E030" horiz-adv-x="1218" d="M1035.712 826.98l184.052-269.386v-71.948q0-43.503-25.098-78.641-25.098-36.81-65.255-55.216v-490.248q0-15.059-10.039-25.098-11.712-10.039-26.771-10.039h-965.438q-16.732 0-26.771 10.039-11.712 10.039-11.712 25.098v490.248q-41.83 18.405-63.582 55.216-25.098 35.137-25.098 78.641v71.948l170.667 254.327 11.712 15.059h853.333zM76.967 535.843v-50.196q0-30.118 21.752-51.869t53.542-21.752q33.464 0 55.216 21.752t21.752 51.869h75.294q0-30.118 21.752-51.869t55.216-21.752q31.791 0 53.542 21.752t21.752 51.869h76.967q0-30.118 21.752-51.869t53.542-21.752q33.464 0 55.216 21.752t21.752 51.869h75.294q0-28.444 23.425-51.869 21.752-21.752 53.542-21.752t53.542 21.752 21.752 51.869h76.967q0-30.118 21.752-51.869t55.216-21.752q31.791 0 53.542 21.752t21.752 51.869v50.196l-147.242 219.19h-771.346zM266.039 391.948q-41.83-46.85-100.392-51.869v-441.725h75.294v354.719q0 15.059 11.712 26.771 11.712 10.039 26.771 10.039h254.327q15.059 0 26.771-10.039 11.712-11.712 11.712-26.771v-354.719h481.882v441.725q-60.235 5.020-102.065 51.869-23.425-26.771-50.196-38.484-30.118-15.059-63.582-15.059-35.137 0-61.908 15.059-26.771 11.712-51.869 38.484-25.098-26.771-51.869-38.484-30.118-15.059-63.582-15.059t-61.908 15.059q-26.771 11.712-51.869 38.484-23.425-26.771-50.196-38.484-30.118-15.059-63.582-15.059t-63.582 15.059q-26.771 11.712-51.869 38.484zM940.34 289.882q13.386 0 26.771-10.039 10.039-13.386 10.039-26.771v-170.667q0-15.059-10.039-25.098-11.712-11.712-26.771-11.712h-279.425q-16.732 0-26.771 11.712-11.712 10.039-11.712 25.098v170.667q0 15.059 11.712 26.771 10.039 10.039 26.771 10.039h279.425zM317.908-101.647h177.359v317.908h-177.359v-317.908zM697.725 119.216h204.131v97.046h-204.131v-97.046z" />
<glyph unicode="&#xe031;" glyph-name="PrivateUseArea-E031" horiz-adv-x="1006" d="M496.941 761.725q-117.124 0-219.19-58.562-102.065-60.235-162.301-162.301-60.235-103.739-60.235-222.536 0-120.471 60.235-220.863 60.235-102.065 162.301-162.301 100.392-60.235 220.863-60.235 117.124 0 220.863 60.235 100.392 60.235 160.627 162.301 58.562 102.065 58.562 220.863t-58.562 222.536q-60.235 102.065-160.627 162.301-103.739 58.562-222.536 58.562zM496.941-180.288q-132.183 0-250.98 68.601-110.431 63.582-177.359 179.033-68.601 117.124-68.601 250.98t68.601 252.654q63.582 110.431 177.359 179.033 118.797 68.601 252.654 68.601 132.183 0 249.307-68.601 112.105-66.928 179.033-179.033 68.601-118.797 68.601-252.654t-68.601-250.98q-68.601-115.451-179.033-179.033-117.124-68.601-250.98-68.601zM503.634 234.667q-11.712 0-20.078 8.366t-8.366 20.078v279.425q0 11.712 8.366 20.078t20.078 8.366 20.078-8.366q6.693-6.693 6.693-20.078v-279.425q0-13.386-6.693-20.078-8.366-8.366-20.078-8.366zM503.634 65.673q-11.712 0-20.078 8.366t-8.366 20.078v41.83q0 11.712 8.366 20.078t20.078 8.366 20.078-8.366q6.693-6.693 6.693-20.078v-41.83q0-13.386-6.693-20.078-8.366-8.366-20.078-8.366z" />
<glyph unicode="&#xe032;" glyph-name="PrivateUseArea-E032" horiz-adv-x="1096" d="M905.203 714.876q23.425 0 40.157-16.732t16.732-38.484v-102.065q0-23.425-16.732-40.157t-40.157-16.732h-105.412q-23.425 0-40.157 16.732-18.405 18.405-18.405 40.157v102.065q0 20.078 18.405 38.484 16.732 16.732 40.157 16.732h105.412zM918.588 659.66q0 5.020-3.346 8.366-6.693 3.346-10.039 3.346h-105.412q-6.693 0-10.039-3.346t-3.346-8.366v-102.065q0-6.693 5.020-10.039 3.346-3.346 8.366-3.346h105.412q3.346 0 10.039 3.346 3.346 3.346 3.346 10.039v102.065zM848.314 821.961q58.562 0 112.105-30.118 50.196-28.444 81.987-78.641 30.118-50.196 30.118-110.431v-565.542q0-61.908-30.118-108.758-30.118-50.196-81.987-80.314-53.542-30.118-112.105-30.118h-609.046q-61.908 0-112.105 30.118-51.869 30.118-81.987 80.314-31.791 46.85-31.791 108.758v565.542q0 61.908 31.791 110.431 31.791 50.196 81.987 78.641 50.196 30.118 112.105 30.118h609.046zM1029.020 415.373h-269.386q43.503-41.83 68.601-95.373 23.425-56.889 23.425-117.124 0-83.66-40.157-150.588-43.503-70.275-112.105-108.758-73.621-40.157-155.608-40.157-83.66 0-153.935 40.157-68.601 38.484-113.778 108.758-41.83 66.928-41.83 150.588 0 61.908 25.098 117.124 25.098 53.542 68.601 95.373h-269.386v-378.144q0-48.523 25.098-88.68 23.425-41.83 65.255-63.582 43.503-23.425 90.353-23.425h609.046q46.85 0 90.353 23.425 40.157 21.752 66.928 63.582 23.425 41.83 23.425 88.68v378.144zM808.157 202.876q0 68.601-35.137 128.837-38.484 60.235-97.046 93.699-61.908 33.464-132.183 33.464t-132.183-33.464q-60.235-33.464-97.046-93.699-35.137-60.235-35.137-128.837 0-70.275 35.137-128.837 36.81-60.235 97.046-92.026 60.235-35.137 132.183-35.137t132.183 35.137q56.889 31.791 97.046 92.026 35.137 58.562 35.137 128.837zM1029.020 458.876v143.895q0 46.85-23.425 88.68-26.771 41.83-66.928 63.582-43.503 23.425-90.353 23.425h-609.046q-46.85 0-90.353-23.425-41.83-21.752-65.255-63.582-25.098-40.157-25.098-88.68v-143.895h326.275q71.948 41.83 158.954 41.83 85.333 0 157.281-41.83h327.948zM344.68 202.876q0 53.542 26.771 97.046 28.444 43.503 73.621 70.275 45.176 25.098 98.719 25.098t98.719-25.098q43.503-26.771 71.948-70.275 26.771-43.503 26.771-97.046t-26.771-95.373q-28.444-45.176-71.948-70.275-43.503-26.771-98.719-26.771t-98.719 26.771q-45.176 23.425-73.621 70.275-26.771 41.83-26.771 95.373zM697.725 202.876q0 63.582-45.176 105.412-46.85 43.503-108.758 43.503t-108.758-43.503q-45.176-41.83-45.176-105.412t45.176-105.412q46.85-43.503 108.758-43.503t108.758 43.503q45.176 41.83 45.176 105.412z" />
<glyph unicode="&#xe033;" glyph-name="PrivateUseArea-E033" horiz-adv-x="1308" d="M291.137 174.431q65.255 0 112.105-46.85t46.85-112.105q0-66.928-46.85-113.778t-112.105-46.85q-66.928 0-113.778 46.85t-46.85 113.778q0 65.255 46.85 112.105t113.778 46.85zM291.137-63.163q31.791 0 55.216 23.425 21.752 21.752 21.752 55.216t-21.752 55.216-55.216 21.752-55.216-21.752q-23.425-23.425-21.752-55.216 0-31.791 23.425-55.216t53.542-23.425zM1005.595 174.431q65.255 0 112.105-46.85t46.85-112.105q0-66.928-46.85-113.778t-112.105-46.85q-66.928 0-113.778 46.85t-46.85 113.778q0 65.255 46.85 112.105t113.778 46.85zM1005.595-63.163q31.791 0 55.216 23.425 21.752 21.752 21.752 55.216t-21.752 55.216-55.216 21.752q-31.791 0-53.542-21.752-23.425-23.425-23.425-55.216t23.425-55.216 53.542-23.425zM527.059 614.484v-81.987h-316.235l-100.392-194.092v-282.771h60.235v-81.987h-100.392q-18.405 0-30.118 11.712t-11.712 28.444v334.641q0 11.712 5.020 18.405l115.451 225.882q5.020 8.366 15.059 16.732 10.039 5.020 21.752 5.020h341.333zM413.281-26.353h471.843v81.987h-471.843v-81.987zM1264.941 820.288q16.732 0 28.444-11.712t11.712-30.118v-762.98q0-18.405-11.712-30.118t-28.444-11.712h-140.549v81.987h98.719v680.993h-655.895v-721.15h-81.987v762.98q0 18.405 11.712 30.118t30.118 11.712h737.882zM70.275 306.614h456.784v81.987h-456.784v-81.987zM1097.621 567.634q11.712-11.712 11.712-30.118-1.673-15.059-15.059-28.444l-234.248-207.477q-11.712-11.712-28.444-10.039-16.732 0-28.444 11.712l-108.758 110.431q-11.712 11.712-11.712 28.444 0 18.405 11.712 30.118t30.118 11.712q15.059 0 28.444-13.386l81.987-81.987 204.131 182.379q11.712 11.712 30.118 11.712 15.059-1.673 28.444-15.059z" />
<glyph unicode="&#xe034;" glyph-name="PrivateUseArea-E034" horiz-adv-x="1308" d="M291.137 174.431q65.255 0 112.105-46.85t46.85-112.105q0-66.928-46.85-113.778t-112.105-46.85q-66.928 0-113.778 46.85t-46.85 113.778q0 65.255 46.85 112.105t113.778 46.85zM291.137-63.163q31.791 0 55.216 23.425 21.752 21.752 21.752 55.216t-21.752 55.216-55.216 21.752-55.216-21.752q-23.425-23.425-21.752-55.216 0-31.791 23.425-55.216t53.542-23.425zM1005.595 174.431q65.255 0 112.105-46.85t46.85-112.105q0-66.928-46.85-113.778t-112.105-46.85q-66.928 0-113.778 46.85t-46.85 113.778q0 65.255 46.85 112.105t113.778 46.85zM1005.595-63.163q31.791 0 55.216 23.425 21.752 21.752 21.752 55.216t-21.752 55.216-55.216 21.752q-31.791 0-53.542-21.752-23.425-23.425-23.425-55.216t23.425-55.216 53.542-23.425zM527.059 614.484v-81.987h-316.235l-100.392-194.092v-282.771h60.235v-81.987h-100.392q-18.405 0-30.118 11.712t-11.712 28.444v334.641q0 11.712 5.020 18.405l115.451 225.882q5.020 8.366 15.059 16.732 10.039 5.020 21.752 5.020h341.333zM413.281-26.353h471.843v81.987h-471.843v-81.987zM1264.941 820.288q16.732 0 28.444-11.712t11.712-30.118v-762.98q0-18.405-11.712-30.118t-28.444-11.712h-140.549v81.987h98.719v680.993h-655.895v-721.15h-81.987v762.98q0 18.405 11.712 30.118t30.118 11.712h737.882zM70.275 306.614h456.784v81.987h-456.784v-81.987z" />
<glyph unicode="&#xe035;" glyph-name="PrivateUseArea-E035" horiz-adv-x="1061" d="M48.523 279.843q-21.752 0-31.791 20.078-13.386 20.078 0 40.157 10.039 20.078 31.791 20.078h687.686l-163.974 175.686q-15.059 18.405-8.366 38.484 6.693 21.752 28.444 26.771t36.81-11.712l229.229-249.307 6.693-13.386v-6.693l-3.346-16.732-6.693-8.366-225.882-244.288q-10.039-11.712-25.098-11.712-16.732-1.673-28.444 10.039t-11.712 28.444q-1.673 13.386 8.366 26.771l163.974 175.686h-687.686zM960.418 828.654q38.484 0 65.255-26.771t26.771-65.255v-833.255q0-38.484-26.771-65.255t-65.255-26.771h-687.686q-38.484 0-65.255 26.771t-26.771 65.255v167.32q0 16.732 11.712 28.444 11.712 10.039 28.444 10.039 13.386 0 26.771-10.039 11.712-11.712 11.712-28.444v-167.32q0-5.020 3.346-8.366 1.673-5.020 10.039-5.020h687.686q6.693 0 10.039 5.020 3.346 3.346 3.346 8.366v833.255q0 3.346-3.346 10.039-3.346 3.346-10.039 3.346h-687.686q-6.693 0-10.039-3.346-3.346-6.693-3.346-10.039v-167.32q0-16.732-11.712-26.771-11.712-11.712-26.771-11.712-16.732 0-28.444 11.712-11.712 10.039-11.712 26.771v167.32q0 38.484 26.771 65.255t65.255 26.771h687.686z" />
<glyph unicode="&#xe036;" glyph-name="PrivateUseArea-E036" horiz-adv-x="796" d="M445.072 94.118q-6.693 6.693-6.693 16.732t6.693 16.732l165.647 168.993h-388.183q-10.039 0-16.732 6.693t-6.693 16.732 6.693 16.732 16.732 6.693h388.183l-165.647 168.993q-6.693 6.693-6.693 16.732t6.693 16.732 16.732 6.693 16.732-6.693l205.804-209.15q6.693-6.693 6.693-16.732t-6.693-16.732l-205.804-209.15q-6.693-6.693-16.732-6.693t-16.732 6.693zM773.020 499.033q-10.039 0-16.732 6.693t-6.693 16.732v175.686q0 33.464-25.098 61.908-25.098 25.098-60.235 25.098h-532.078q-35.137 0-60.235-25.098-25.098-28.444-25.098-61.908v-756.288q0-35.137 25.098-60.235 25.098-26.771 60.235-26.771h532.078q35.137 0 60.235 26.771 25.098 25.098 25.098 60.235v175.686q0 10.039 6.693 16.732t16.732 6.693 16.732-6.693 6.693-16.732v-175.686q0-55.216-38.484-93.699-40.157-40.157-93.699-40.157h-532.078q-55.216 0-92.026 40.157-40.157 36.81-40.157 93.699v756.288q0 55.216 40.157 95.373 38.484 38.484 92.026 38.484h532.078q51.869 0 93.699-38.484 38.484-41.83 38.484-95.373v-175.686q0-10.039-6.693-16.732t-16.732-6.693z" />
<glyph unicode="&#xe037;" glyph-name="PrivateUseArea-E037" horiz-adv-x="1934" d="M43.503-150.17h1320.157q16.732 0 30.118 13.386 11.712 11.712 11.712 28.444v378.144q0 18.405-11.712 30.118t-30.118 11.712q-16.732 0-28.444-11.712-13.386-13.386-13.386-30.118v-276.078l-373.124 371.451 373.124 329.621v-163.974q0-25.098 21.752-36.81 20.078-11.712 41.83 0 20.078 13.386 20.078 36.81v264.366l-3.346 8.366-3.346 6.693-5.020 6.693-10.039 8.366-6.693 3.346-8.366 1.673h-1325.176q-18.405 0-30.118-11.712t-11.712-30.118v-896.837l1.673-11.712 6.693-13.386q3.346-5.020 8.366-8.366l13.386-6.693zM85.333 746.667h1167.895l-550.484-486.902-471.843 399.895q-13.386 11.712-30.118 10.039-18.405-3.346-28.444-15.059-11.712-13.386-10.039-30.118 1.673-15.059 15.059-28.444l276.078-234.248-368.105-368.105v752.941zM1261.595-66.51h-1117.699l368.105 368.105 5.020 6.693 158.954-135.529q11.712-11.712 28.444-10.039 15.059 0 26.771 10.039l157.281 138.876q3.346-6.693 6.693-10.039zM1892.392 353.464q25.098 0 36.81 21.752 11.712 20.078 0 41.83-11.712 20.078-36.81 20.078h-707.765q-23.425 0-36.81-20.078-11.712-21.752 0-41.83 11.712-21.752 36.81-21.752h707.765zM1818.771 584.366q25.098 0 36.81 21.752 11.712 20.078 0 41.83-11.712 20.078-36.81 20.078h-317.908q-21.752 0-35.137-20.078-11.712-21.752 0-41.83 11.712-21.752 35.137-21.752h317.908zM1584.523 40.575q-16.732 0-28.444-11.712-13.386-13.386-13.386-28.444 0-16.732 13.386-30.118t28.444-13.386h307.869q16.732 0 30.118 13.386 11.712 11.712 11.712 30.118 0 16.732-11.712 28.444t-30.118 11.712h-307.869zM1413.856 211.242q-21.752 0-35.137-20.078-11.712-21.752 0-41.83 11.712-21.752 35.137-21.752h307.869q25.098 0 36.81 21.752 11.712 20.078 0 41.83-11.712 20.078-36.81 20.078h-307.869z" />
<glyph unicode="&#xe038;" glyph-name="PrivateUseArea-E038" horiz-adv-x="1536" d="M1459.033 832q31.791 0 55.216-23.425 21.752-21.752 21.752-56.889v-863.373q0-35.137-21.752-56.889-23.425-23.425-55.216-23.425h-1382.065q-30.118 0-53.542 23.425t-23.425 56.889v863.373q0 33.464 23.425 56.889t53.542 23.425h1382.065zM766.327 771.765h-659.242l660.915-532.078 660.915 532.078h-662.588zM1477.438 729.935l-518.693-418.301 359.739-289.464q10.039-10.039 10.039-23.425t-10.039-23.425-21.752-10.039q-13.386 0-23.425 10.039l-364.758 296.157-110.431-88.68q-11.712-11.712-30.118-11.712t-30.118 11.712l-110.431 88.68-364.758-296.157q-10.039-10.039-21.752-10.039-13.386 0-23.425 10.039t-10.039 23.425 10.039 23.425l359.739 289.464-518.693 418.301v-841.621q0-8.366 5.020-13.386 5.020-6.693 13.386-6.693h1382.065q8.366 0 13.386 6.693 5.020 5.020 5.020 13.386v841.621z" />
<glyph unicode="&#xe039;" glyph-name="PrivateUseArea-E039" d="M512-192q138.876 0 257.673 70.275 117.124 66.928 184.052 184.052 70.275 117.124 70.275 257.673 0 138.876-70.275 257.673-66.928 117.124-184.052 184.052-118.797 70.275-257.673 70.275-140.549 0-257.673-70.275-117.124-66.928-184.052-184.052-70.275-118.797-70.275-257.673 0-140.549 70.275-257.673 66.928-117.124 184.052-184.052 117.124-70.275 257.673-70.275zM512 796.863q127.163 0 240.941-65.255 107.085-63.582 170.667-170.667 65.255-113.778 65.255-240.941t-65.255-240.941q-63.582-107.085-170.667-170.667-113.778-65.255-240.941-65.255t-240.941 65.255q-107.085 63.582-170.667 170.667-65.255 113.778-65.255 240.941t65.255 240.941q63.582 107.085 170.667 170.667 113.778 65.255 240.941 65.255zM727.843 303.268q6.693 0 11.712 5.020t5.020 11.712-5.020 11.712-11.712 5.020h-431.686q-6.693 0-11.712-5.020t-5.020-11.712 5.020-11.712 11.712-5.020h431.686z" />
<glyph unicode="&#xe03a;" glyph-name="PrivateUseArea-E03A" d="M137.203 457.203q55.216 0 95.373-40.157t40.157-97.046-40.157-97.046-95.373-40.157q-56.889 0-97.046 40.157t-40.157 97.046 40.157 97.046 97.046 40.157zM886.797 457.203q56.889 0 97.046-40.157t40.157-97.046-40.157-97.046-95.373-40.157q-56.889 0-97.046 40.157t-40.157 97.046 40.157 97.046 95.373 40.157zM512 457.203q56.889 0 97.046-40.157t40.157-97.046-40.157-97.046-97.046-40.157-97.046 40.157-40.157 97.046 40.157 97.046 97.046 40.157z" />
<glyph unicode="&#xe03b;" glyph-name="PrivateUseArea-E03B" d="M742.902 107.503q11.712 0 18.405 6.693 6.693 5.020 6.693 15.059 0 8.366-6.693 15.059-8.366 5.020-18.405 5.020h-461.804q-10.039 0-16.732-5.020-8.366-8.366-8.366-15.059 0-10.039 8.366-15.059 6.693-6.693 16.732-6.693h461.804zM768 468.915q0 25.098-18.405 46.85-18.405 18.405-45.176 18.405t-45.176-18.405q-20.078-20.078-20.078-46.85 0-28.444 20.078-45.176 18.405-18.405 45.176-18.405t45.176 18.405 18.405 45.176zM426.667 468.915q0 26.771-18.405 45.176-18.405 16.732-45.176 16.732-28.444 0-45.176-16.732-18.405-18.405-18.405-45.176-1.673-15.059 6.693-31.791 8.366-15.059 23.425-23.425 15.059-10.039 33.464-10.039 16.732 0 31.791 10.039 15.059 8.366 23.425 23.425 8.366 16.732 8.366 31.791zM512-192q138.876 0 257.673 70.275 117.124 66.928 184.052 184.052 70.275 117.124 70.275 257.673 0 138.876-70.275 257.673-66.928 117.124-184.052 184.052-118.797 70.275-257.673 70.275-140.549 0-257.673-70.275-117.124-66.928-184.052-184.052-70.275-118.797-70.275-257.673 0-140.549 70.275-257.673 66.928-117.124 184.052-184.052 117.124-70.275 257.673-70.275zM512 783.477q123.817 0 232.575-63.582 105.412-61.908 167.32-167.32 63.582-108.758 63.582-232.575t-63.582-232.575q-61.908-105.412-167.32-167.32-108.758-63.582-232.575-63.582t-232.575 63.582q-105.412 61.908-167.32 167.32-63.582 108.758-63.582 232.575t63.582 232.575q61.908 105.412 167.32 167.32 108.758 63.582 232.575 63.582z" />
<glyph unicode="&#xe03c;" glyph-name="PrivateUseArea-E03C" horiz-adv-x="845" d="M844.967 25.516v-51.869h-844.967v51.869l105.412 103.739v261.020q0 123.817 61.908 210.824 65.255 92.026 175.686 117.124v35.137q0 33.464 23.425 56.889 21.752 21.752 56.889 21.752 33.464 0 55.216-21.752 23.425-23.425 23.425-56.889v-35.137q112.105-25.098 174.013-117.124 63.582-88.68 63.582-210.824v-261.020zM421.647-183.634q-43.503 0-73.621 31.791-31.791 30.118-31.791 73.621h210.824q0-43.503-30.118-73.621-31.791-31.791-75.294-31.791z" />
<glyph unicode="&#xe03d;" glyph-name="PrivateUseArea-E03D" horiz-adv-x="776" d="M158.954 119.216q3.346 8.366 10.039 13.386t18.405 1.673q56.889-18.405 95.373-25.098 53.542-10.039 112.105-10.039 56.889 0 107.085 10.039 40.157 5.020 92.026 21.752 10.039 3.346 16.732-1.673 10.039-6.693 11.712-13.386 1.673-8.366-1.673-18.405-5.020-8.366-15.059-10.039-56.889-18.405-95.373-25.098-58.562-10.039-117.124-10.039-65.255 0-118.797 11.712-45.176 8.366-100.392 26.771-8.366 3.346-13.386 10.039t-1.673 18.405zM120.471 460.549q0 87.007 50.196 157.281 46.85 66.928 125.49 95.373-3.346 6.693-3.346 13.386 0 41.83 30.118 71.948 26.771 30.118 71.948 30.118 41.83 0 71.948-30.118 28.444-31.791 28.444-71.948 0-3.346-3.346-13.386 78.641-28.444 127.163-97.046 48.523-71.948 48.523-155.608v-165.647q0-78.641 50.196-142.222l45.176-56.889q1.673-1.673 5.020-8.366 8.366-8.366 8.366-18.405 0-46.85-73.621-80.314-73.621-30.118-180.706-41.83 1.673-1.673 1.673-8.366 0-53.542-38.484-92.026t-90.353-38.484q-53.542 0-92.026 38.484-36.81 36.81-40.157 92.026 0 5.020 1.673 6.693-108.758 11.712-179.033 43.503-75.294 33.464-75.294 80.314 0 10.039 8.366 18.405l3.346 3.346q1.673 1.673 1.673 3.346l45.176 56.889q51.869 61.908 51.869 143.895v165.647zM478.536-58.144q-83.66-8.366-168.993 0v-3.346q0-35.137 25.098-60.235t60.235-25.098q33.464 0 58.562 25.098t25.098 60.235v3.346zM337.987 724.915q20.078 5.020 48.523 5.020 5.020 0 6.693-1.673l8.366 1.673q25.098 0 48.523-5.020v1.673q0 25.098-15.059 41.83-16.732 15.059-40.157 15.059-25.098 0-40.157-15.059-16.732-16.732-16.732-41.83v-1.673zM386.51 676.392q-58.562 0-107.085-28.444-51.869-30.118-78.641-80.314-30.118-50.196-30.118-108.758v-162.301q0-97.046-60.235-168.993l-45.176-58.562q5.020-13.386 43.503-31.791 41.83-18.405 112.105-31.791 83.66-13.386 174.013-13.386 88.68 0 172.34 13.386 70.275 13.386 110.431 31.791t45.176 31.791l-45.176 58.562q-28.444 36.81-43.503 78.641-16.732 40.157-16.732 90.353v162.301q0 56.889-28.444 108.758-30.118 48.523-78.641 80.314-51.869 28.444-108.758 28.444-5.020 0-8.366 1.673h-1.673q-1.673-1.673-5.020-1.673z" />
<glyph unicode="&#xe03e;" glyph-name="PrivateUseArea-E03E" horiz-adv-x="987" d="M493.595 820.288q135.529 0 249.307-68.601 110.431-63.582 179.033-177.359 66.928-113.778 66.928-249.307t-66.928-249.307q-68.601-110.431-179.033-177.359-112.105-66.928-247.634-66.928-137.203 0-250.98 66.928-110.431 66.928-177.359 177.359-66.928 113.778-66.928 249.307t66.928 249.307q66.928 112.105 177.359 177.359 117.124 68.601 249.307 68.601zM493.595 748.34q-85.333 0-160.627-31.791t-135.529-92.026q-60.235-58.562-92.026-137.203-33.464-80.314-33.464-160.627 0-81.987 33.464-162.301t90.353-137.203q55.216-56.889 137.203-92.026 75.294-31.791 162.301-31.791 85.333 0 160.627 31.791 76.967 33.464 137.203 92.026 58.562 58.562 92.026 137.203 31.791 75.294 31.791 162.301 0 85.333-31.791 160.627-30.118 73.621-92.026 137.203-63.582 61.908-137.203 92.026-75.294 31.791-162.301 31.791zM240.941 410.353q35.137 0 60.235-25.098t25.098-60.235-25.098-58.562q-25.098-25.098-60.235-25.098-23.425 0-41.83 11.712-20.078 10.039-30.118 30.118-11.712 18.405-11.712 43.503 0 23.425 11.712 41.83 10.039 18.405 30.118 30.118 18.405 11.712 41.83 11.712zM493.595 410.353q35.137 0 60.235-25.098t25.098-60.235-25.098-58.562q-25.098-25.098-60.235-25.098-23.425 0-40.157 11.712-18.405 10.039-31.791 30.118-11.712 18.405-11.712 43.503 0 23.425 11.712 41.83 13.386 18.405 31.791 30.118 16.732 11.712 40.157 11.712zM747.922 410.353q35.137 0 60.235-25.098 23.425-26.771 23.425-60.235 0-35.137-23.425-58.562-25.098-25.098-60.235-25.098-25.098 0-41.83 11.712-18.405 10.039-31.791 30.118-11.712 18.405-11.712 43.503 0 23.425 11.712 41.83 13.386 18.405 31.791 30.118 16.732 11.712 41.83 11.712z" />
<glyph unicode="&#xe03f;" glyph-name="PrivateUseArea-E03F" horiz-adv-x="699" d="M0 407.007q0 41.83 30.118 71.948t70.275 30.118h498.614q38.484 0 70.275-28.444 30.118-30.118 30.118-73.621v-496.941q0-41.83-28.444-70.275-30.118-30.118-71.948-30.118h-498.614q-43.503 0-70.275 30.118-30.118 28.444-30.118 70.275v496.941zM53.542-89.935q0-21.752 15.059-33.464 13.386-13.386 31.791-13.386h498.614q16.732 0 33.464 13.386 13.386 13.386 13.386 33.464v496.941q0 18.405-13.386 35.137-16.732 13.386-33.464 13.386h-498.614q-18.405 0-31.791-13.386-15.059-15.059-15.059-35.137v-496.941zM578.928 535.843v118.797q0 50.196-35.137 88.68-38.484 35.137-88.68 35.137h-209.15q-51.869 0-88.68-35.137-36.81-36.81-36.81-88.68v-118.797h-53.542v118.797q0 33.464 13.386 68.601 11.712 30.118 38.484 56.889 25.098 25.098 58.562 38.484 35.137 13.386 68.601 13.386h209.15q46.85 0 90.353-23.425 41.83-25.098 63.582-65.255 23.425-41.83 23.425-88.68v-118.797h-53.542zM282.771 50.614q-21.752 0-36.81 16.732-16.732 15.059-16.732 36.81v135.529q0 21.752 16.732 38.484 15.059 15.059 36.81 15.059h135.529q20.078 0 38.484-15.059 15.059-16.732 15.059-38.484v-135.529q0-21.752-15.059-36.81-16.732-16.732-38.484-16.732h-41.83v-107.085h-53.542v107.085h-40.157zM418.301 77.386v0zM282.771 104.157h135.529v135.529h-135.529v-135.529z" />
<glyph unicode="&#xe040;" glyph-name="PrivateUseArea-E040" d="M659.242 318.327q0 5.020-3.346 11.712-6.693 3.346-11.712 3.346h-271.059q-6.693 0-10.039-3.346-5.020-5.020-5.020-11.712v-160.627q0-8.366 5.020-10.039 1.673-5.020 10.039-5.020h272.732q6.693 0 11.712 5.020 3.346 3.346 3.346 10.039zM438.379 388.601h140.549v81.987q0 26.771-16.732 43.503-18.405 18.405-43.503 18.405h-18.405q-25.098 0-43.503-18.405t-18.405-43.503v-81.987zM645.856 390.275q26.771 0 50.196-20.078 20.078-23.425 18.405-51.869v-158.954q0-30.118-20.078-50.196-21.752-21.752-51.869-21.752h-269.386q-30.118 0-50.196 21.752-21.752 20.078-21.752 50.196v160.627q0 28.444 21.752 50.196 20.078 20.078 50.196 20.078h8.366v81.987q3.346 50.196 36.81 81.987 33.464 33.464 81.987 33.464h18.405q46.85 0 83.66-33.464 33.464-33.464 33.464-81.987v-81.987h10.039zM510.327 266.458q10.039 0 18.405-8.366t8.366-20.078-8.366-20.078-18.405-8.366q-11.712 0-20.078 8.366t-8.366 20.078 8.366 20.078 20.078 8.366zM868.392 681.412q93.699-97.046 132.183-227.556 35.137-130.51 1.673-262.693-35.137-132.183-132.183-227.556-95.373-95.373-229.229-133.856-60.235-16.732-130.51-16.732-65.255 0-132.183 16.732-11.712 1.673-16.732 15.059-6.693 8.366-3.346 21.752 1.673 8.366 13.386 16.732 8.366 5.020 21.752 1.673 118.797-30.118 234.248 1.673 117.124 30.118 204.131 117.124 85.333 85.333 115.451 202.458 30.118 115.451 0 232.575t-117.124 202.458v-50.196q0-11.712-8.366-20.078t-18.405-8.366q-11.712 0-20.078 8.366t-8.366 20.078v118.797q0 11.712 8.366 20.078t18.405 8.366h120.471q11.712 0 20.078-8.366 6.693-6.693 6.693-20.078t-6.693-20.078q-8.366-8.366-20.078-8.366h-53.542zM189.072 642.928q-87.007-87.007-117.124-204.131t0-232.575q30.118-117.124 117.124-204.131v51.869q0 10.039 8.366 18.405t20.078 8.366q10.039 0 18.405-8.366t8.366-18.405v-120.471q0-10.039-8.366-18.405t-18.405-8.366h-120.471q-10.039 0-18.405 8.366t-8.366 18.405q0 11.712 8.366 20.078t18.405 8.366h51.869q-95.373 98.719-130.51 229.229-38.484 130.51 0 264.366 35.137 132.183 132.183 227.556 93.699 95.373 227.556 132.183 130.51 35.137 262.693 0 10.039-1.673 18.405-13.386 5.020-11.712 1.673-21.752-1.673-11.712-13.386-16.732-8.366-6.693-21.752-3.346-117.124 30.118-234.248 0-117.124-31.791-202.458-117.124z" />
<glyph unicode="&#xe041;" glyph-name="PrivateUseArea-E041" horiz-adv-x="719" d="M0 407.007q0 41.83 31.791 71.948 30.118 30.118 71.948 30.118h512q40.157 0 73.621-28.444 30.118-30.118 30.118-73.621v-496.941q0-41.83-30.118-70.275-30.118-30.118-73.621-30.118h-512q-43.503 0-73.621 30.118-30.118 28.444-30.118 70.275v496.941zM55.216-89.935q0-18.405 15.059-31.791 13.386-15.059 33.464-15.059h512q18.405 0 35.137 13.386 13.386 13.386 13.386 33.464v496.941q0 18.405-13.386 35.137-16.732 13.386-35.137 13.386h-512q-20.078 0-33.464-13.386-15.059-15.059-15.059-35.137v-496.941zM595.66 535.843v118.797q0 51.869-36.81 88.68-36.81 35.137-90.353 35.137h-215.843q-51.869 0-90.353-35.137-36.81-36.81-36.81-88.68v-118.797h-56.889v118.797q0 48.523 25.098 88.68t66.928 65.255q43.503 23.425 92.026 23.425h215.843q48.523 0 92.026-23.425 41.83-25.098 66.928-65.255 23.425-41.83 23.425-88.68v-118.797h-55.216zM291.137 50.614q-23.425 0-38.484 16.732-16.732 15.059-16.732 36.81v135.529q0 21.752 16.732 38.484 15.059 15.059 38.484 15.059h138.876q21.752 0 38.484-15.059 16.732-16.732 16.732-38.484v-135.529q0-21.752-16.732-36.81-16.732-16.732-38.484-16.732h-41.83v-107.085h-55.216v107.085h-41.83zM430.013 77.386v0zM291.137 104.157h138.876v135.529h-138.876v-135.529z" />
<glyph unicode="&#xe042;" glyph-name="PrivateUseArea-E042" d="M512 832q138.876 0 257.673-70.275 117.124-66.928 184.052-184.052 70.275-118.797 70.275-257.673 0-140.549-70.275-257.673-66.928-117.124-184.052-184.052-118.797-70.275-257.673-70.275-140.549 0-257.673 70.275-117.124 66.928-184.052 184.052-70.275 117.124-70.275 257.673 0 138.876 70.275 257.673 66.928 117.124 184.052 184.052 117.124 70.275 257.673 70.275zM754.614 463.895q5.020 3.346 5.020 10.039t-5.020 10.039l-76.967 78.641q-5.020 5.020-10.039 5.020-6.693 0-11.712-5.020l-389.856-391.529q-5.020-1.673-8.366-11.712l-21.752-92.026q-1.673-8.366 6.693-16.732t16.732-6.693l92.026 20.078q8.366 3.346 13.386 10.039v-1.673l23.425 25.098-98.719 98.719 38.484 36.81 98.719-98.719 242.614 242.614-98.719 98.719 36.81 38.484 98.719-98.719z" />
<glyph unicode="&#xe043;" glyph-name="PrivateUseArea-E043" horiz-adv-x="591" d="M423.32 832q8.366 0 16.732-5.020 5.020-8.366 5.020-16.732v-15.059h33.464q40.157 0 71.948-28.444 28.444-31.791 28.444-71.948v-784.732q0-41.83-28.444-70.275-30.118-30.118-71.948-30.118h-366.431q-41.83 0-70.275 30.118-28.444 28.444-28.444 70.275v788.078q0 40.157 28.444 71.948 28.444 28.444 70.275 28.444h291.137v11.712q0 10.039 6.693 16.732 5.020 5.020 13.386 5.020zM538.771-91.608v76.967h-483.556v-76.967q0-23.425 16.732-40.157 18.405-18.405 40.157-18.405h366.431q21.752 0 40.157 18.405 16.732 16.732 16.732 40.157h3.346zM538.771 27.19v588.967h-483.556v-588.967h483.556zM478.536 753.359h-366.431q-23.425 0-40.157-16.732t-16.732-41.83v-33.464h480.209v36.81q0 23.425-16.732 40.157t-40.157 16.732v-1.673z" />
<glyph unicode="&#xe044;" glyph-name="PrivateUseArea-E044" d="M512 832q138.876 0 257.673-70.275 117.124-66.928 184.052-184.052 70.275-118.797 70.275-257.673 0-140.549-70.275-257.673-66.928-117.124-184.052-184.052-118.797-70.275-257.673-70.275-76.967 0-152.261 23.425 51.869 81.987 63.582 133.856l31.791 122.144q11.712-23.425 46.85-41.83 33.464-18.405 71.948-18.405 73.621 0 135.529 43.503 60.235 41.83 95.373 115.451 33.464 75.294 33.464 160.627 0 83.66-40.157 150.588-43.503 68.601-113.778 107.085-73.621 38.484-160.627 38.484-108.758 0-185.725-45.176-75.294-45.176-112.105-112.105-40.157-70.275-40.157-153.935 0-60.235 26.771-115.451 30.118-60.235 76.967-81.987 13.386-8.366 16.732 6.693l13.386 58.562q1.673 6.693-3.346 13.386-15.059 20.078-25.098 53.542-11.712 30.118-11.712 63.582 0 56.889 28.444 110.431 28.444 50.196 76.967 80.314 53.542 31.791 125.49 31.791 92.026 0 153.935-58.562 60.235-56.889 60.235-148.915 0-71.948-21.752-122.144-23.425-55.216-58.562-83.66-38.484-30.118-81.987-30.118-36.81 0-60.235 28.444t-15.059 65.255q0 3.346 18.405 66.928 23.425 78.641 23.425 105.412 0 28.444-16.732 50.196-16.732 20.078-46.85 20.078-40.157 0-66.928-35.137-26.771-36.81-26.771-90.353 0-25.098 8.366-55.216l6.693-20.078-58.562-254.327q-13.386-55.216-3.346-147.242-98.719 40.157-167.32 108.758-75.294 70.275-115.451 165.647-41.83 93.699-41.83 202.458 0 138.876 70.275 257.673 66.928 117.124 184.052 184.052 117.124 70.275 257.673 70.275z" />
<glyph unicode="&#xe045;" glyph-name="PrivateUseArea-E045" d="M873.412 681.412q75.294-75.294 112.105-165.647 38.484-95.373 38.484-195.765t-38.484-195.765q-38.484-92.026-110.431-165.647-73.621-73.621-167.32-112.105-95.373-38.484-195.765-38.484t-195.765 38.484q-90.353 36.81-165.647 112.105t-112.105 165.647q-38.484 95.373-38.484 195.765t38.484 195.765q38.484 93.699 112.105 167.32 73.621 71.948 165.647 110.431 95.373 38.484 195.765 38.484t195.765-38.484q90.353-36.81 165.647-112.105zM512-131.765q123.817 0 225.882 61.908 102.065 60.235 165.647 163.974 60.235 102.065 60.235 225.882t-60.235 225.882q-63.582 102.065-165.647 165.647-102.065 60.235-225.882 60.235t-225.882-60.235q-103.739-63.582-163.974-165.647-61.908-102.065-61.908-225.882t61.908-225.882q60.235-103.739 163.974-163.974 102.065-61.908 225.882-61.908zM801.464 350.118q10.039 0 21.752-8.366 8.366-11.712 8.366-21.752 0-11.712-8.366-20.078-10.039-10.039-21.752-10.039h-259.346v-259.346q0-11.712-8.366-20.078-10.039-10.039-21.752-10.039-13.386 0-20.078 10.039-10.039 8.366-10.039 20.078v259.346h-259.346q-11.712 0-20.078 10.039-10.039 6.693-10.039 20.078 0 11.712 10.039 21.752 8.366 8.366 20.078 8.366h259.346v259.346q0 11.712 10.039 21.752 8.366 8.366 20.078 8.366 10.039 0 21.752-8.366 8.366-11.712 8.366-21.752v-259.346h259.346z" />
<glyph unicode="&#xe046;" glyph-name="PrivateUseArea-E046" d="M968.784 391.948q15.059 0 33.464-18.405 21.752-21.752 21.752-53.542t-21.752-53.542q-18.405-18.405-33.464-18.405h-384.837v-384.837q0-15.059-18.405-33.464-21.752-21.752-53.542-21.752t-53.542 21.752q-18.405 18.405-18.405 33.464v384.837h-384.837q-15.059 0-33.464 18.405-21.752 21.752-21.752 53.542t21.752 53.542q18.405 18.405 33.464 18.405h384.837v384.837q0 15.059 18.405 33.464 21.752 21.752 53.542 21.752t53.542-21.752q18.405-18.405 18.405-33.464v-384.837h384.837z" />
<glyph unicode="&#xe048;" glyph-name="PrivateUseArea-E048" horiz-adv-x="919" d="M272.732 495.686q-13.386 13.386-31.791 13.386-20.078 0-33.464-13.386t-13.386-31.791q0-20.078 13.386-33.464l180.706-182.379q15.059-15.059 31.791-11.712 16.732 0 30.118 13.386l430.013 480.209q5.020 8.366 0 15.059-3.346 3.346-8.366 3.346t-8.366-3.346l-431.686-386.51q-5.020-5.020-11.712-5.020-8.366 0-10.039 5.020zM423.32 202.876q-35.137-1.673-58.562 21.752l-180.706 182.379q-21.752 21.752-21.752 56.889-1.673 31.791 21.752 55.216 21.752 21.752 56.889 21.752v0q31.791 0 55.216-23.425l125.49-125.49 419.974 378.144q11.712 11.712 31.791 11.712 20.078-3.346 30.118-13.386 11.712-11.712 11.712-30.118t-11.712-30.118l-428.34-480.209q-23.425-23.425-51.869-25.098zM793.098 417.046q-1.673-6.693 0-11.712l41.83-73.621q10.039-15.059 5.020-33.464-5.020-20.078-20.078-26.771l-73.621-41.83q-5.020-3.346-5.020-10.039v-85.333q0-16.732-13.386-30.118t-31.791-13.386h-83.66q-8.366 0-10.039-6.693l-41.83-71.948q-10.039-18.405-26.771-20.078-16.732-5.020-35.137 3.346l-71.948 41.83q-6.693 1.673-11.712 0l-73.621-41.83q-15.059-8.366-31.791-3.346-18.405 3.346-28.444 20.078l-41.83 71.948q-1.673 6.693-10.039 6.693h-83.66q-18.405 0-31.791 13.386t-13.386 30.118v85.333q0 6.693-5.020 10.039l-73.621 41.83q-15.059 6.693-20.078 26.771-5.020 18.405 5.020 33.464l41.83 73.621q1.673 5.020 0 11.712l-41.83 71.948q-10.039 18.405-5.020 35.137t20.078 26.771l73.621 41.83q5.020 1.673 5.020 10.039v83.66q0 18.405 13.386 31.791t31.791 13.386h83.66q8.366 0 10.039 5.020l41.83 73.621q10.039 15.059 28.444 20.078 16.732 5.020 31.791-5.020l73.621-41.83q5.020-1.673 11.712 0l71.948 41.83q16.732 10.039 35.137 5.020 16.732-5.020 26.771-20.078l41.83-73.621q3.346-5.020 10.039-5.020h83.66q18.405 0 31.791-13.386t13.386-31.791v-30.118l-33.464-28.444v58.562q0 5.020-3.346 8.366t-8.366 3.346h-83.66q-26.771 0-38.484 21.752l-41.83 73.621-6.693 6.693q-6.693 0-10.039-1.673l-71.948-43.503q-21.752-13.386-45.176 0l-71.948 43.503q-3.346 1.673-8.366 1.673-6.693-3.346-8.366-6.693l-41.83-73.621q-11.712-21.752-38.484-21.752h-83.66q-5.020 0-8.366-3.346t-3.346-8.366v-83.66q0-25.098-23.425-38.484l-71.948-41.83q-5.020-1.673-5.020-6.693-3.346-5.020 0-10.039l43.503-71.948q13.386-23.425 0-45.176l-43.503-73.621q-3.346-3.346 0-8.366 0-3.346 5.020-6.693l71.948-41.83q23.425-13.386 23.425-38.484v-85.333q0-3.346 3.346-6.693 3.346-5.020 8.366-5.020h83.66q26.771 0 38.484-21.752l41.83-71.948q1.673-5.020 8.366-5.020 3.346-3.346 8.366 0l71.948 41.83q23.425 13.386 45.176 0l71.948-41.83q5.020-1.673 10.039 0 3.346 0 6.693 5.020l41.83 71.948q11.712 21.752 38.484 21.752h83.66q6.693 0 8.366 5.020 3.346 3.346 3.346 6.693v85.333q0 26.771 21.752 38.484l73.621 41.83q3.346 3.346 5.020 6.693 1.673 5.020-1.673 8.366l-41.83 73.621q-11.712 21.752 0 45.176l41.83 71.948q3.346 6.693 1.673 10.039l-3.346 3.346t-1.673 3.346l-56.889 33.464 21.752 23.425 51.869-28.444q15.059-10.039 20.078-26.771t-5.020-35.137zM665.935 37.229q0 5.020-3.346 11.712-6.693 3.346-11.712 3.346t-11.712-3.346q-5.020-5.020-5.020-11.712v-184.052l-207.477 87.007q-6.693 1.673-11.712 0l-207.477-87.007v184.052q0 6.693-5.020 11.712-6.693 3.346-11.712 3.346-6.693 0-10.039-3.346-5.020-5.020-5.020-11.712v-209.15q0-8.366 6.693-13.386t15.059-1.673l222.536 95.373 224.209-95.373q8.366-3.346 15.059 1.673t6.693 13.386v209.15z" />
<glyph unicode="&#xe049;" glyph-name="PrivateUseArea-E049" horiz-adv-x="512" d="M252.654-49.778q10.039 0 21.752-8.366 10.039-10.039 10.039-23.425v-63.582q-3.346-13.386-10.039-20.078-10.039-10.039-21.752-10.039-15.059 0-21.752 10.039-10.039 6.693-10.039 20.078v63.582q0 13.386 10.039 23.425 8.366 8.366 21.752 8.366zM256 832q65.255-1.673 123.817-35.137 55.216-31.791 90.353-90.353 33.464-58.562 35.137-122.144 0-66.928-30.118-123.817-31.791-56.889-87.007-92.026-46.85-31.791-75.294-85.333-28.444-56.889-28.444-117.124v-90.353q0-13.386-8.366-21.752-10.039-10.039-23.425-10.039-15.059 0-21.752 10.039-10.039 8.366-10.039 21.752v90.353q0 80.314 35.137 147.242 33.464 65.255 98.719 107.085 43.503 26.771 65.255 70.275 21.752 41.83 21.752 92.026-3.346 51.869-26.771 92.026t-66.928 68.601q-41.83 25.098-93.699 25.098-33.464 1.673-71.948-11.712-36.81-15.059-63.582-41.83-28.444-28.444-40.157-61.908-15.059-35.137-15.059-73.621 0-11.712-8.366-20.078-10.039-10.039-23.425-10.039-15.059 0-21.752 10.039-10.039 8.366-10.039 20.078 0 51.869 20.078 98.719 16.732 43.503 55.216 81.987 36.81 36.81 81.987 53.542 46.85 18.405 95.373 18.405h3.346z" />
<glyph unicode="&#xe04a;" glyph-name="PrivateUseArea-E04A" d="M269.386 607.791q-1.673-8.366-1.673-41.83 0-46.85 10.039-87.007 11.712-56.889 43.503-90.353 36.81-41.83 107.085-45.176h1.673q68.601 3.346 108.758 45.176 30.118 35.137 41.83 90.353 10.039 40.157 10.039 87.007 1.673 30.118 0 41.83l-1.673 1.673q-3.346 92.026-60.235 135.529-36.81 26.771-98.719 30.118h-1.673q-56.889 0-93.699-26.771-60.235-43.503-65.255-138.876v-1.673zM426.667 288.209q-95.373 3.346-147.242 63.582-50.196 55.216-63.582 158.954-6.693 45.176-3.346 102.065 1.673 71.948 36.81 127.163 28.444 41.83 66.928 63.582 51.869 28.444 112.105 28.444h3.346q65.255-3.346 112.105-30.118 40.157-23.425 65.255-61.908 35.137-55.216 36.81-127.163 5.020-51.869-1.673-102.065-11.712-100.392-63.582-158.954-55.216-63.582-147.242-63.582h-6.693zM684.34-143.477q-38.484 15.059-66.928 41.83-90.353-20.078-187.399-20.078-128.837 0-247.634 35.137-68.601 21.752-122.144 50.196-5.020 31.791-3.346 65.255v5.020q3.346 45.176 10.039 70.275 11.712 33.464 45.176 46.85 65.255 18.405 128.837 50.196 43.503 23.425 61.908 36.81v0q10.039 6.693 11.712 18.405t-5.020 21.752q-10.039 10.039-16.732 11.712-11.712 1.673-21.752-5.020-13.386-11.712-51.869-31.791-66.928-35.137-122.144-48.523h-1.673q-60.235-20.078-81.987-80.314-10.039-26.771-13.386-88.68v-6.693q-3.346-63.582 10.039-93.699 1.673-6.693 11.712-13.386 33.464-25.098 112.105-51.869 140.549-48.523 296.157-48.523 133.856 0 254.327 35.137zM599.007 211.242q20.078 21.752 45.176 40.157-31.791 15.059-55.216 33.464-10.039 6.693-21.752 5.020-8.366-1.673-18.405-11.712-6.693-8.366-3.346-21.752 1.673-10.039 10.039-18.405 23.425-15.059 43.503-26.771zM768 311.634q-65.255 0-123.817-33.464-58.562-31.791-90.353-90.353-33.464-58.562-33.464-123.817t33.464-123.817q31.791-58.562 90.353-90.353 58.562-33.464 123.817-33.464t123.817 33.464q58.562 31.791 90.353 90.353 33.464 58.562 33.464 123.817t-33.464 123.817q-31.791 58.562-90.353 90.353-58.562 33.464-123.817 33.464v0zM768 264.784q55.216-3.346 100.392-28.444 45.176-26.771 71.948-71.948 26.771-46.85 26.771-100.392 0-55.216-26.771-98.719-26.771-45.176-71.948-73.621-46.85-26.771-100.392-26.771-55.216 0-98.719 26.771-46.85 26.771-73.621 73.621-26.771 43.503-26.771 98.719 0 53.542 26.771 100.392 28.444 45.176 73.621 71.948 41.83 25.098 98.719 28.444v0zM768-73.203v0zM905.203 64v0z" />
</font>
</defs>
</svg>
